<?xml version="1.0" encoding="UTF-8"?>
<svg xmlns="http://www.w3.org/2000/svg" width="76" height="40" viewBox="0 0 76 40" fill="none">
  <path fill-rule="evenodd" clip-rule="evenodd" d="M67.2031 21.9807C67.1935 22.0774 67.1599 22.1233 67.0831 22.1284L66.9727 22.1436C66.9727 39.4156 66.9727 39.4513 67.0687 39.4513C67.1407 39.4513 67.1647 39.4869 67.1647 39.5785V39.7058H69.3732V32.0192C69.5892 32.0192 69.6132 31.9937 69.6132 31.8919V31.7646H72.5418C72.5418 31.9988 72.5659 32.0192 72.6859 32.0192C72.8155 32.0192 72.8299 32.0344 72.8299 32.1719C72.8299 32.2941 72.8491 32.3246 72.9403 32.3246C73.0316 32.3246 73.0508 32.3602 73.0844 32.5639C73.1036 32.7013 73.118 32.8947 73.118 32.9965C73.118 33.1696 73.1324 33.19 73.238 33.19H73.358C73.358 37.354 73.3724 38.7488 73.3964 38.983C73.4252 39.3342 73.4444 39.4004 73.5165 39.4004C73.5741 39.4004 73.5981 39.4411 73.5981 39.5531V39.7058H75.8065C75.8065 39.436 75.8257 39.4004 75.9026 39.4004C75.9986 39.4004 75.9986 39.3647 75.9986 38.0005C75.9986 36.6362 75.9986 36.6006 75.9026 36.6006C75.8113 36.6006 75.8065 36.565 75.8065 36.0508C75.8065 35.7505 75.7921 34.9157 75.7729 34.1928L75.7345 32.8846C75.5233 32.8846 75.5185 32.8642 75.5089 32.462C75.4989 32.1725 75.4958 32.0838 75.4516 32.0515C75.4321 32.0373 75.4045 32.034 75.3649 32.0293C75.2352 32.0192 75.2304 32.009 75.2304 31.7392C75.2304 31.4643 75.2304 31.4592 75.0864 31.4592C74.9664 31.4592 74.9424 31.4389 74.9424 31.332C74.9424 31.2301 74.9184 31.2047 74.8223 31.2047C74.7215 31.2047 74.7023 31.1792 74.7023 31.052C74.7023 30.8993 74.6975 30.8993 74.4383 30.8993C74.179 30.8993 74.1742 30.8993 74.1742 30.7465C74.1742 30.6193 74.155 30.5938 74.0542 30.5938C73.9581 30.5938 73.9341 30.5684 73.9341 30.4666C73.9341 30.3444 73.9485 30.3393 74.1982 30.3393C74.4479 30.3393 74.4623 30.3342 74.4623 30.212C74.4623 30.095 74.4863 30.0848 74.7023 30.0593C74.9232 30.0339 74.9424 30.0237 74.9568 29.8913C74.9664 29.7794 74.9952 29.7539 75.1008 29.7386C75.2208 29.7284 75.2304 29.7132 75.2304 29.4739C75.2304 29.2347 75.24 29.2194 75.3649 29.2041C75.4897 29.1939 75.4945 29.1787 75.5089 28.8987C75.5185 28.6289 75.5281 28.6085 75.6385 28.6085H75.7585C75.7777 27.1068 75.7777 26.16 75.7729 25.5288L75.7585 24.3834C75.5281 24.3834 75.5185 24.3631 75.5185 24.1645C75.5185 24.0475 75.4993 23.8642 75.4801 23.7624C75.4561 23.625 75.4177 23.569 75.3504 23.5588C75.2784 23.5486 75.2496 23.4977 75.2448 23.3755C75.2304 23.2381 75.2112 23.2126 75.1104 23.2126C75.0144 23.2126 74.9904 23.1872 74.9904 23.0854C74.9904 22.9785 74.9664 22.9581 74.8463 22.9581C74.7167 22.9581 74.7023 22.9428 74.7023 22.8054C74.7023 22.6781 74.6831 22.6527 74.5823 22.6527C74.4863 22.6527 74.4623 22.6272 74.4671 22.5305C74.4671 22.4236 74.4431 22.4032 74.3086 22.388C74.1934 22.3778 74.1454 22.3472 74.1358 22.2709C74.1262 22.1996 74.0734 22.1589 73.9437 22.1334C73.8477 22.1131 73.6221 22.0927 73.4444 22.0927C73.1276 22.0927 73.118 22.0876 73.118 21.9655V21.8382H67.2175L67.2031 21.9807ZM69.6152 26.8015V29.7794C71.382 29.7794 71.9773 29.759 72.0734 29.7387C72.203 29.7132 72.2558 29.6725 72.2654 29.6012C72.275 29.53 72.323 29.4943 72.4094 29.4841C72.5199 29.474 72.5439 29.4485 72.5439 29.3467C72.5439 29.2398 72.5679 29.2194 72.6879 29.2194C72.8175 29.2194 72.8319 29.2042 72.8319 29.0667C72.8319 28.9446 72.8511 28.914 72.9375 28.914C73.0288 28.914 73.0528 28.8784 73.0816 28.7257C73.1008 28.6188 73.12 28.4355 73.12 28.3184C73.12 28.1199 73.1296 28.0995 73.24 28.0995H73.36V25.2489C73.1296 25.2489 73.12 25.2285 73.096 24.9434C73.072 24.6584 73.0624 24.638 72.9519 24.638C72.8559 24.638 72.8319 24.6126 72.8319 24.5107C72.8319 24.4038 72.8079 24.3835 72.6879 24.3835C72.5583 24.3835 72.5439 24.3682 72.5439 24.2308C72.5439 24.0781 72.5391 24.0781 72.2798 24.0781C72.0302 24.0781 72.0157 24.073 72.0157 23.9508V23.8235H69.6152V26.8015Z" fill="white"></path>
  <path d="M46.0449 23.8235V22.8308V21.8382H53.5825V21.9655C53.5825 22.0673 53.6065 22.0927 53.8226 22.0927V23.5181H53.7026C53.6065 23.5181 53.5825 23.5486 53.5585 23.798L51.134 23.8235V39.7058H48.7335V39.5531C48.7335 39.4258 48.7143 39.4004 48.4934 39.4004V23.8235H46.0449Z" fill="white"></path>
  <path d="M26.2617 22.9581V22.3981V21.8382H28.6622V22.2454C28.6622 22.6476 28.6622 22.6527 28.7823 22.6527C28.9023 22.6527 28.9023 22.6578 28.9023 23.0955C28.9023 23.345 28.9167 23.7217 28.9359 23.9406C28.9695 24.302 28.9839 24.3325 29.0799 24.3325C29.1903 24.3325 29.1903 24.3376 29.1903 25.8088H29.4304L29.4784 27.4886H29.7185V28.1351C29.7185 28.4966 29.7377 28.8732 29.7569 28.9801C29.7761 29.0972 29.8193 29.1685 29.8625 29.1685C29.9105 29.1685 29.9441 29.2449 29.9729 29.4077C29.9921 29.5452 30.0065 29.8761 30.0065 30.1459C30.0065 30.6447 30.0065 30.6447 30.2466 30.6447V31.2403C30.2466 31.5712 30.261 31.9479 30.2802 32.0853C30.3138 32.289 30.333 32.3246 30.4242 32.3246C30.5346 32.3246 30.5346 32.3297 30.5346 34.0045H30.6547C30.7699 34.0045 30.7747 34.0197 30.7747 34.2946C30.7747 34.4575 30.7891 34.7782 30.8131 35.0124C30.8419 35.3993 30.8563 35.4298 30.9523 35.4298C31.0579 35.4298 31.0627 35.4094 31.0627 34.9971C31.0627 34.5797 31.0675 34.5644 31.1732 34.5644C31.2692 34.5644 31.2836 34.5339 31.3172 34.1724C31.3364 33.9536 31.3508 33.5769 31.3508 33.3274C31.3508 32.8896 31.3508 32.8846 31.5909 32.8846V32.233C31.5909 31.8766 31.6101 31.4999 31.6293 31.393C31.6485 31.276 31.6917 31.2047 31.7349 31.2047C31.7829 31.2047 31.8165 31.1283 31.8453 30.9654C31.8645 30.828 31.8789 30.4513 31.8789 29.5248H31.9989C32.119 29.5248 32.119 29.5248 32.119 29.026C32.119 28.7562 32.1334 28.4253 32.1526 28.2878C32.1814 28.1249 32.215 28.0486 32.263 28.0486C32.3062 28.0486 32.3494 27.9773 32.3686 27.8602C32.3878 27.7533 32.407 27.3766 32.407 26.3687H32.6471L32.6951 24.638H32.9351V23.798C32.9351 22.9632 32.9351 22.9581 33.0456 22.9581C33.1368 22.9581 33.156 22.9225 33.1896 22.7188C33.2088 22.5814 33.2232 22.388 33.2232 22.2811C33.2232 22.1131 33.2376 22.0927 33.3432 22.0927C33.4393 22.0927 33.4633 22.0673 33.4633 21.8382H35.3357V22.9581H35.2156C35.1004 22.9581 35.0956 22.9734 35.0956 23.2483C35.0956 23.4112 35.0812 23.7319 35.0572 23.966C35.0284 24.3529 35.014 24.3834 34.918 24.3834C34.8075 24.3834 34.8075 24.3885 34.8075 25.0961C34.8075 25.8037 34.8075 25.8088 34.7019 25.8088C34.6011 25.8088 34.5867 25.8393 34.5579 26.2262C34.5339 26.4604 34.5195 26.7811 34.5195 26.9389C34.5195 27.2188 34.5147 27.2341 34.2794 27.2341L34.2698 27.9315C34.2554 28.5882 34.2506 28.634 34.1594 28.6493C34.0778 28.6594 34.0586 28.7154 34.025 29.0565C34.0058 29.2703 33.9914 29.591 33.9914 29.7641C33.9914 30.0746 33.9866 30.0848 33.8713 30.0848C33.7513 30.0848 33.7513 30.0848 33.7513 30.5531C33.7513 30.8127 33.7369 31.1334 33.7177 31.2709C33.6889 31.4338 33.6553 31.5101 33.6073 31.5101C33.5641 31.5101 33.5209 31.5814 33.5017 31.6985C33.4825 31.8054 33.4633 32.1261 33.4633 32.9355H33.3432C33.2232 32.9355 33.2232 32.9456 33.2232 33.3274C33.2232 33.5463 33.2088 33.9128 33.1848 34.147C33.156 34.5339 33.1416 34.5644 33.0456 34.5644C32.9351 34.5644 32.9351 34.5695 32.9351 35.2771C32.9351 35.9847 32.9351 35.9897 32.8295 35.9897C32.7287 35.9897 32.7143 36.0203 32.6855 36.4072C32.6615 36.6413 32.6471 36.962 32.6471 37.1198C32.6471 37.3998 32.6423 37.4151 32.407 37.4151V37.9343C32.407 38.2245 32.3878 38.5452 32.3686 38.6521C32.3494 38.7692 32.3062 38.8404 32.263 38.8404C32.215 38.8404 32.1814 38.9168 32.1526 39.0797C32.1334 39.2171 32.119 39.4106 32.119 39.5124C32.119 39.6956 32.1094 39.7058 31.9749 39.7058C31.8549 39.7058 31.8309 39.7262 31.8309 39.9603H30.0065V39.8331C30.0065 39.7262 29.9825 39.7058 29.8625 39.7058C29.7329 39.7058 29.7185 39.6905 29.7185 39.5531C29.7185 39.4258 29.6993 39.4004 29.5984 39.4004C29.4786 39.4004 29.4784 39.3953 29.4545 38.8435L29.4544 38.8404L29.4543 38.8389C29.4304 38.2855 29.4302 38.2805 29.1903 38.2805V37.5678C29.1903 36.8602 29.1903 36.8551 29.0847 36.8551C28.9839 36.8551 28.9695 36.8246 28.9407 36.4377C28.9167 36.2035 28.9023 35.8828 28.9023 35.72C28.9023 35.4451 28.8975 35.4298 28.6622 35.4298V34.7426C28.6622 34.0655 28.6622 34.0554 28.5566 34.0554C28.4606 34.0554 28.4414 34.0197 28.4078 33.8161C28.3886 33.6787 28.3742 33.358 28.3742 33.1034C28.3742 32.63 28.3742 32.63 28.2541 32.63C28.1389 32.63 28.1341 32.6148 28.1341 32.3348C28.1341 32.177 28.1197 31.8563 28.0957 31.6221C28.0669 31.2352 28.0525 31.2047 27.9565 31.2047C27.8461 31.2047 27.8461 31.1996 27.8461 29.7794H27.726C27.606 29.7794 27.606 29.7794 27.582 29.1939C27.558 28.6085 27.558 28.6085 27.3179 28.6085V27.8959C27.3179 27.1883 27.3179 27.1832 27.2075 27.1832C27.1115 27.1832 27.0971 27.1527 27.0635 26.7912C27.0443 26.5723 27.0299 26.2618 27.0299 26.0989C27.0299 25.824 27.0251 25.8088 26.7898 25.8088V25.2845C26.7898 24.9994 26.7706 24.6787 26.7514 24.5718C26.7322 24.4547 26.689 24.3834 26.6458 24.3834C26.5978 24.3834 26.5642 24.3071 26.5354 24.1442C26.5162 24.0067 26.5018 23.686 26.5018 23.4315C26.5018 22.9581 26.5018 22.9581 26.2617 22.9581Z" fill="white"></path>
  <path d="M17.668 39.7058V30.772V21.8382H24.9175L24.9079 22.7748C24.8983 23.289 24.8743 23.7319 24.8551 23.7573C24.8311 23.7777 23.7557 23.8031 20.1165 23.8235L20.1069 26.3789C20.1021 27.789 20.1021 29.0514 20.1069 29.1939C20.1165 29.3314 20.1357 29.4587 20.1453 29.4739C20.1597 29.4892 20.9903 29.5045 23.8133 29.5248L23.8229 29.6368C23.8325 29.7234 23.8709 29.759 24.1013 29.7794V31.4592H23.9813C23.8853 31.4592 23.8565 31.4847 23.8373 31.7392L20.1165 31.7646V34.3201C20.1165 35.7301 20.1021 37.0689 20.0445 37.7205H24.8455L24.8791 37.9089C24.8983 38.0158 24.9175 38.4637 24.9175 39.7058H17.668Z" fill="white"></path>
  <path d="M9.53214 22.0927C9.62816 22.0927 9.65216 22.0673 9.65216 21.9655V21.8382H11.7406L11.7742 22.0265C11.7934 22.1334 11.8126 25.707 11.8126 37.7205H11.9326C12.0287 37.7205 12.0527 37.746 12.0527 37.975L15.5334 38.0005L15.5478 38.7132C15.5574 39.1051 15.5526 39.548 15.5094 39.9603H9.65216V39.8331C9.65216 39.7313 9.62816 39.7058 9.41211 39.7058V22.0927H9.53214Z" fill="white"></path>
  <path d="M0 39.7058V30.772V21.8382H7.0095V21.9655C7.0095 22.0571 7.0335 22.0927 7.10552 22.0927C7.19674 22.0927 7.20154 22.1284 7.20154 23.5181H7.08151C6.98069 23.5181 6.96149 23.5435 6.96149 23.8235H2.40051L2.42452 29.4994L6.12131 29.5248L6.15972 29.9219C6.17892 30.1357 6.19332 30.5327 6.19332 30.7975C6.19332 31.0622 6.17892 31.3879 6.12131 31.7646H2.40051V37.7205H6.96149L6.97109 37.858C6.98069 37.975 7.0143 38.0005 7.24955 38.0259V39.7058H0Z" fill="white"></path>
  <path fill-rule="evenodd" clip-rule="evenodd" d="M39.393 21.8229C39.1578 21.8382 39.153 21.8433 39.1194 22.0317C39.1002 22.1335 39.081 22.388 39.081 22.5916C39.081 22.9479 39.0762 22.9581 38.9609 22.9581H38.8409C38.8409 23.966 38.8217 24.3427 38.8025 24.4496C38.7737 24.6024 38.7497 24.638 38.6633 24.638C38.5529 24.638 38.5529 24.6431 38.5529 25.3761V26.1142C38.3128 26.1142 38.3128 26.1193 38.3128 26.5367C38.3128 26.7658 38.2984 27.1323 38.2792 27.3512C38.2456 27.7126 38.2312 27.7432 38.1352 27.7432C38.0247 27.7432 38.0247 27.7483 38.0247 28.4813C38.0247 29.2143 38.0247 29.2194 37.9143 29.2194C37.8183 29.2194 37.8039 29.25 37.7751 29.6368C37.7511 29.871 37.7367 30.2477 37.7367 30.4819C37.7367 30.8942 37.7367 30.8993 37.6167 30.8993H37.4966C37.4966 32.3195 37.4966 32.3246 37.3862 32.3246C37.295 32.3246 37.2758 32.3603 37.2422 32.5639C37.223 32.7013 37.2086 33.078 37.2086 33.4089V34.0045H36.9685C36.9445 35.4095 36.9397 35.4553 36.8485 35.4705C36.7813 35.4807 36.7429 35.5367 36.7189 35.6742C36.6997 35.776 36.6805 36.1527 36.6805 36.5141V37.1606H36.4404L36.3924 38.8404C36.1523 38.8404 36.1523 38.8455 36.1523 39.2731V39.7058C36.4164 39.7058 36.4404 39.7262 36.4404 39.8331V39.9604H38.2408C38.2936 39.6651 38.3128 39.4818 38.3128 39.3648C38.3128 39.1662 38.3224 39.1459 38.4328 39.1459H38.5529C38.5529 38.138 38.5721 37.7613 38.5913 37.6544C38.6105 37.5373 38.6537 37.466 38.6969 37.466C38.7449 37.466 38.7785 37.3897 38.8073 37.2268C38.8265 37.0893 38.8409 36.7788 38.8409 36.5243V36.0661C39.1194 36.0101 39.8155 35.9898 40.5693 35.9898C41.323 35.9898 42.0192 36.0101 42.12 36.0305L42.2977 36.0661C42.2977 36.7788 42.3121 37.0893 42.3313 37.2268C42.3601 37.3897 42.3937 37.466 42.4417 37.466C42.4849 37.466 42.5281 37.5373 42.5473 37.6544C42.5665 37.7613 42.5857 38.199 42.5857 38.6266V39.4004C42.8066 39.4004 42.8258 39.4259 42.8258 39.5531V39.7058H45.5143C45.5143 39.4768 45.4903 39.4513 45.3943 39.4513C45.2743 39.4513 45.2743 39.4462 45.2743 39.0084C45.2743 38.759 45.2599 38.3721 45.2359 38.138C45.2071 37.7511 45.1927 37.7205 45.0967 37.7205C44.9862 37.7205 44.9862 37.7154 44.9862 36.8806C44.9862 36.0458 44.9862 36.0407 44.8806 36.0407C44.7846 36.0407 44.7654 36.005 44.7318 35.8014C44.7126 35.664 44.6982 35.3331 44.6982 35.0633C44.6982 34.7036 44.6982 34.6033 44.6532 34.5753C44.6358 34.5644 44.6116 34.5644 44.5781 34.5644H44.4581C44.4581 32.8897 44.4581 32.8846 44.3525 32.8846C44.2613 32.8846 44.2373 32.8489 44.2085 32.6962C44.1893 32.5893 44.1701 32.2126 44.1701 31.8563V31.2047C43.93 31.2047 43.93 31.1996 43.93 30.7364C43.93 30.4768 43.9108 30.1408 43.8916 29.9932C43.8676 29.8048 43.8388 29.7285 43.786 29.7285C43.7428 29.7285 43.6996 29.6623 43.6756 29.5656C43.6563 29.4739 43.6419 29.0922 43.6419 28.7256V28.0486H43.4019L43.3539 26.3688H43.1138C43.1138 24.9485 43.1138 24.9434 43.0082 24.9434C42.9074 24.9434 42.893 24.9129 42.8642 24.526C42.8402 24.2918 42.8258 23.9151 42.8258 23.6861C42.8258 23.2686 42.8258 23.2636 42.7057 23.2636H42.5857V22.0927C42.3745 22.0927 42.3457 22.0673 42.3457 21.9808C42.3457 21.8789 42.3121 21.8586 42.096 21.828C41.9568 21.8077 41.3423 21.7924 40.7373 21.7975C40.1324 21.8026 39.5275 21.8128 39.393 21.8229ZM40.7152 24.5769C40.7152 24.6787 40.7008 24.8721 40.6816 25.0096C40.6528 25.1725 40.6192 25.2488 40.5712 25.2488C40.528 25.2488 40.4847 25.3201 40.4655 25.4372C40.4463 25.5441 40.4271 25.9208 40.4271 26.2771V26.9287C40.1871 26.9287 40.1871 26.9338 40.1871 27.3715C40.1871 27.621 40.1727 28.0079 40.1487 28.242C40.1199 28.6289 40.1055 28.6594 40.0046 28.6594C39.899 28.6594 39.899 28.6645 39.899 29.4994V30.3393H39.659L39.611 32.0701H39.3709V33.7499C39.1549 33.7499 39.1309 33.7754 39.1309 33.8772C39.1309 33.9688 39.1549 34.0044 39.2269 34.0044C39.3037 34.0044 39.3229 34.0401 39.3229 34.1572V34.3099H42.0595C42.0595 33.6583 42.0451 33.2816 42.0211 33.0525C41.9923 32.686 41.9731 32.63 41.8914 32.6198C41.8002 32.6046 41.7954 32.5588 41.7858 31.6221L41.7714 30.6447C41.5362 30.6447 41.5314 30.6345 41.5314 30.2731C41.5314 30.0746 41.517 29.6165 41.493 29.255C41.4594 28.6289 41.4546 28.6085 41.3537 28.6085H41.2433C41.2433 27.1679 41.2241 26.664 41.2049 26.5571C41.1857 26.44 41.1425 26.3687 41.0993 26.3687C41.0417 26.3687 41.0177 26.272 40.9937 25.9513C40.9697 25.7171 40.9552 25.2692 40.9552 24.9536V24.3834C40.7296 24.3834 40.7152 24.4038 40.7152 24.5718V24.5769Z" fill="white"></path>
  <path fill-rule="evenodd" clip-rule="evenodd" d="M58.8939 21.7383C58.8645 21.7892 58.7557 21.7942 58.3527 21.8128C57.9496 21.8313 57.8408 21.8364 57.8114 21.8872C57.8005 21.906 57.8005 21.9311 57.8005 21.9655C57.8005 22.0876 57.7861 22.0927 57.5365 22.0927C57.2868 22.0927 57.2724 22.0978 57.2724 22.22C57.2724 22.3371 57.2484 22.3473 57.0324 22.3727C56.8115 22.3982 56.7923 22.4083 56.7779 22.5407C56.7683 22.6476 56.7443 22.6832 56.6339 22.6934C56.5283 22.6985 56.5043 22.729 56.5043 22.8309C56.5043 22.9327 56.4803 22.9581 56.3842 22.9581C56.2738 22.9581 56.2642 22.9785 56.2402 23.2381C56.2162 23.4977 56.2066 23.5181 56.0962 23.5181C55.9857 23.5181 55.9761 23.5384 55.9521 23.798C55.9281 24.0577 55.9185 24.078 55.8081 24.078C55.6881 24.078 55.6881 24.0831 55.6881 24.5107C55.6881 24.9383 55.6881 24.9434 55.5681 24.9434C55.5375 24.9434 55.5147 24.9434 55.4973 24.9531C55.4465 24.9815 55.4419 25.0927 55.424 25.5288C55.4061 25.965 55.4016 26.0762 55.3508 26.1045C55.3334 26.1142 55.3106 26.1142 55.28 26.1142H55.16C55.16 27.9468 55.1456 28.5882 55.1264 28.7256C55.0976 28.9089 55.0688 28.9649 55.0063 28.9649C54.9247 28.9649 54.9199 29.0871 54.9199 30.772C54.9199 32.457 54.9247 32.5791 55.0063 32.5791C55.0688 32.5791 55.0976 32.6351 55.1264 32.8184C55.1456 32.9558 55.16 33.6074 55.16 34.2743V35.4807C55.3904 35.4807 55.4 35.496 55.4 35.7505C55.4 35.893 55.4144 36.2036 55.4384 36.4377C55.4672 36.8246 55.4816 36.8551 55.5825 36.8551C55.6833 36.8551 55.6881 36.8704 55.6881 37.2878C55.6881 37.7154 55.6881 37.7205 55.8081 37.7205C55.9185 37.7205 55.9281 37.7409 55.9521 38.0005C55.9761 38.2601 55.9857 38.2805 56.0962 38.2805C56.197 38.2805 56.2162 38.3059 56.2162 38.4332C56.2162 38.5605 56.2354 38.5859 56.3362 38.5859C56.4322 38.5859 56.4563 38.6114 56.4707 38.7284C56.4803 38.8404 56.5043 38.8659 56.6147 38.8812C56.7203 38.8913 56.7443 38.9168 56.7443 39.0186C56.7443 39.1255 56.7683 39.1459 56.8883 39.1459C57.0084 39.1459 57.0324 39.1662 57.0324 39.2731C57.0324 39.3749 57.0564 39.4004 57.1668 39.4157C57.2724 39.4258 57.2964 39.4513 57.3108 39.5684L57.3204 39.7058C58.0838 39.7058 58.0886 39.7058 58.0886 39.8331V39.9603C59.3369 40.0062 60.057 40.0062 60.5035 39.9909L61.3053 39.9603C61.3053 39.7058 61.3101 39.7058 61.7134 39.7058C62.1167 39.7058 62.1215 39.7058 62.1215 39.5786C62.1215 39.4615 62.1407 39.4513 62.3855 39.4258C62.6304 39.4004 62.6496 39.3902 62.6496 39.2731C62.6496 39.1713 62.6736 39.1459 62.7696 39.1459C62.8656 39.1459 62.8896 39.1204 62.904 39.0084C62.9136 38.8913 62.9376 38.8659 63.0481 38.8557C63.1681 38.8404 63.1777 38.8252 63.1921 38.5757C63.2017 38.3212 63.2113 38.3059 63.3361 38.2957C63.4465 38.2805 63.4657 38.255 63.4657 38.1278C63.4657 38.0005 63.485 37.975 63.5858 37.975C63.6962 37.975 63.7058 37.9547 63.7058 37.7612C63.7058 37.6391 63.725 37.4558 63.7442 37.354C63.7682 37.2166 63.8066 37.1606 63.8738 37.1504C63.9603 37.1351 63.9699 37.0893 63.9843 36.5904C63.9939 36.0559 63.9987 36.0407 64.1043 36.0407C64.2051 36.0407 64.2099 36.0203 64.2483 35.3433C64.2675 34.9564 64.2819 34.4423 64.2819 34.1979C64.2819 33.755 64.2819 33.7499 64.4019 33.7499H64.522V28.0486C64.2819 28.0486 64.2819 28.0435 64.2819 27.5803C64.2819 27.3207 64.2675 26.8167 64.2435 26.4553C64.2099 25.8291 64.2051 25.8088 64.1043 25.8088C63.9987 25.8088 63.9939 25.7935 63.9843 25.2387C63.9699 24.7092 63.9603 24.6634 63.8738 24.6482C63.8066 24.638 63.7682 24.582 63.7442 24.4445C63.725 24.3427 63.7058 24.1595 63.7058 24.0424C63.7058 23.8439 63.6962 23.8235 63.5858 23.8235C63.485 23.8235 63.4657 23.798 63.4657 23.6708C63.4657 23.5435 63.4465 23.5181 63.3457 23.5181C63.2353 23.5181 63.2257 23.4977 63.2017 23.2381C63.1777 22.9785 63.1681 22.9581 63.0577 22.9581C62.9616 22.9581 62.9376 22.9276 62.928 22.8207C62.9136 22.7087 62.8896 22.673 62.784 22.668C62.6736 22.6578 62.6496 22.6272 62.6496 22.5254C62.6496 22.4185 62.6256 22.3982 62.5055 22.3982C62.3855 22.3982 62.3615 22.3778 62.3615 22.2709C62.3615 22.1538 62.3423 22.1436 62.0975 22.1182C61.8526 22.0927 61.8334 22.0825 61.8334 21.9655C61.8334 21.8484 61.819 21.8382 61.5837 21.8382C61.4445 21.8382 61.1517 21.8229 60.9356 21.7975C60.5899 21.7669 60.5371 21.7466 60.5275 21.66C60.5131 21.5633 60.4699 21.5582 59.7113 21.543L58.9048 21.5328V21.66C58.9048 21.6944 58.9048 21.7195 58.8939 21.7383ZM59.4589 23.5537C59.4349 23.5689 59.4205 23.6199 59.4301 23.6657C59.4349 23.7217 59.3821 23.7573 59.2573 23.7827C59.1564 23.8031 58.9836 23.8235 58.8684 23.8235C58.6859 23.8235 58.6667 23.8337 58.6667 23.9507C58.6667 24.0576 58.6427 24.078 58.5227 24.078C58.3931 24.078 58.3787 24.0933 58.3787 24.2307C58.3787 24.3529 58.3595 24.3834 58.2683 24.3834C58.1818 24.3834 58.1578 24.4191 58.129 24.5718C58.1098 24.6787 58.0906 24.8619 58.0906 24.9841C58.0906 25.1775 58.081 25.1979 57.9706 25.1979C57.94 25.1979 57.9172 25.1979 57.8998 25.2076C57.849 25.236 57.8444 25.3472 57.8266 25.7833C57.8074 26.2974 57.7929 26.3687 57.7161 26.3687C57.6585 26.3687 57.6249 26.4247 57.6009 26.5571C57.5817 26.664 57.5625 28.6442 57.5625 30.9654V35.1753C57.7689 35.1753 57.7833 35.2058 57.8122 35.5927C57.8362 35.8268 57.8506 36.1374 57.8506 36.285C57.8506 36.5344 57.8602 36.5497 57.9706 36.5497C58.0858 36.5497 58.0906 36.565 58.0906 36.8551V37.1605C58.3787 37.1605 58.3787 37.1656 58.3787 37.4405V37.7205C58.8828 37.7205 58.9068 37.7307 58.9068 37.8376C58.9068 37.9292 58.9404 37.9547 59.0844 37.9852C59.1852 38.0056 59.4301 38.0259 59.6269 38.0259C59.8238 38.0259 60.1647 38.0107 60.3855 37.9852C60.7504 37.9547 60.7792 37.9394 60.7792 37.8376C60.7792 37.7409 60.808 37.7205 60.9232 37.7205C61.0528 37.7205 61.0672 37.7052 61.0672 37.5678C61.0672 37.4405 61.0865 37.4151 61.1873 37.4151C61.3025 37.4151 61.3073 37.3998 61.3073 37.1351C61.3073 36.8806 61.3169 36.8551 61.4129 36.8551C61.5041 36.8551 61.5281 36.8195 61.557 36.6668C61.5762 36.5599 61.5954 36.3053 61.5954 36.1068C61.5954 35.7556 61.6002 35.7352 61.701 35.7352H61.8114C61.869 33.0729 61.8834 31.9835 61.8834 31.6017C61.8834 30.9349 61.8882 30.8992 61.9794 30.8992C62.0659 30.8992 62.0755 30.8636 62.0755 30.6193C62.0755 30.3851 62.0611 30.3393 61.989 30.3393C61.9122 30.3393 61.9026 30.2171 61.869 28.802C61.8498 27.9519 61.8354 26.9338 61.8354 26.5367V25.8088C61.5954 25.8088 61.5954 25.8037 61.5954 25.3761C61.5954 24.9485 61.5954 24.9434 61.4753 24.9434C61.3649 24.9434 61.3553 24.923 61.3313 24.6634C61.3073 24.4038 61.2977 24.3834 61.1873 24.3834C61.0865 24.3834 61.0672 24.358 61.0672 24.2307C61.0672 24.0933 61.0528 24.078 60.9232 24.078C60.8032 24.078 60.7792 24.0576 60.7792 23.9507C60.7792 23.8337 60.7648 23.8235 60.5007 23.8133C60.2703 23.798 60.2271 23.7827 60.2127 23.6962C60.2031 23.6249 60.1503 23.5842 60.0206 23.5588C59.9246 23.5384 59.7662 23.518 59.6702 23.518C59.5741 23.518 59.4829 23.5333 59.4589 23.5537Z" fill="white"></path>
  <path d="M0 13.897L0.134429 13.8767H0.129628C0.206444 13.8716 0.508909 13.8563 1.34429 13.8461V15.246L1.56994 15.2867C1.69956 15.3071 4.04246 15.3224 11.7625 15.3224V15.4496C11.7625 15.5565 11.7865 15.5769 12.0506 15.5769V16.9259L11.8729 16.9615C11.7721 16.9819 9.42922 17.0022 1.63235 17.0022V17.1295C1.63235 17.2364 1.60834 17.2568 1.34429 17.2568V18.733H0.902593C0.657741 18.733 0.355276 18.7177 0 18.6566V13.897Z" fill="white"></path>
  <path d="M0.120026 7.02485C0.216046 7.02485 0.240051 6.9994 0.240051 6.89759V6.77032H11.8105V6.92304C11.8105 7.0503 11.8297 7.07575 12.0506 7.07575V8.19566H11.9306C11.8297 8.19566 11.8105 8.22111 11.8105 8.50109H6.43338V10.9954H8.84349C10.1734 10.9954 11.436 11.0107 12.0506 11.0718V12.4717H11.9065C11.7865 12.4717 11.7625 12.492 11.7625 12.7262H0.288062V12.5989C0.288062 12.492 0.264056 12.4717 0 12.4717V11.0718L0.225648 11.0311C0.355276 11.0107 1.49792 10.9954 5.08909 10.9954V8.50109L2.59736 8.49091C1.22426 8.48073 0.0864185 8.45528 0.0624133 8.43491C0.0432092 8.40946 0.0192041 8.08367 0 7.02485H0.120026Z" fill="white"></path>
  <path fill-rule="evenodd" clip-rule="evenodd" d="M60.7351 0.300291C60.6919 0.330834 60.6775 0.376648 60.6967 0.427553C60.7255 0.488639 60.7111 0.509001 60.6391 0.509001C60.567 0.509001 60.5382 0.554815 60.5142 0.676987C60.4998 0.763525 60.4902 1.02823 60.4902 1.26239C60.495 1.67472 60.495 1.67981 60.375 1.67981C60.2646 1.67981 60.255 1.69508 60.255 1.94961C60.255 2.09214 60.279 2.23977 60.303 2.26522C60.3366 2.29576 60.3462 2.41284 60.3318 2.5452C60.3222 2.67246 60.279 2.90662 60.2454 3.06952C60.1974 3.28841 60.1638 3.35967 60.1013 3.35967C60.0437 3.35967 60.0053 3.41058 59.9861 3.52766C59.9717 3.6142 59.9573 3.74655 59.9525 3.81782C59.9525 3.88908 59.9573 4.01126 59.9621 4.09779C59.9717 4.18433 59.9765 4.37268 59.9717 4.5203C59.9669 4.73411 59.9525 4.78501 59.8805 4.78501C59.8133 4.78501 59.8037 4.82573 59.8181 5.04972C59.8277 5.19734 59.7941 5.57913 59.7461 5.89474C59.6693 6.36815 59.6404 6.46487 59.5684 6.46487C59.5252 6.46487 59.4772 6.48014 59.4676 6.5005C59.458 6.52596 59.4388 6.64813 59.4196 6.78048C59.3956 6.97392 59.41 7.0401 59.4772 7.10627C59.5444 7.17245 59.5492 7.20299 59.5012 7.30989C59.4676 7.37607 59.4388 7.53387 59.4388 7.66113C59.4388 7.86984 59.4292 7.89021 59.3188 7.89021H59.1988C59.2036 8.77595 59.194 9.11192 59.1796 9.20355C59.1555 9.33591 59.1267 9.36645 59.0307 9.36645C58.9203 9.36645 58.9107 9.38681 58.9107 9.59552C58.9107 9.72278 58.8867 9.87041 58.8627 9.9264C58.8243 10.0028 58.8387 10.0638 58.9107 10.1809C58.9827 10.298 58.9971 10.3591 58.9587 10.4355C58.9347 10.4914 58.9107 10.6391 58.9107 10.7663C58.9107 10.97 58.9011 10.9954 58.8051 10.9954C58.7042 10.9954 58.6946 11.0259 58.661 11.3874C58.6418 11.6521 58.6514 11.8252 58.685 11.8964C58.7283 11.988 58.7283 12.044 58.685 12.1408C58.6514 12.212 58.6226 12.3138 58.6226 12.3698C58.6226 12.4309 58.589 12.4716 58.541 12.4716C58.469 12.4716 58.4594 12.5073 58.469 12.6651C58.4786 12.7669 58.4594 12.8992 58.4306 12.9552C58.397 13.0112 58.3826 13.1385 58.397 13.2352C58.4114 13.3319 58.397 13.5814 58.3682 13.785C58.3202 14.0802 58.2962 14.1515 58.2289 14.1515C58.1617 14.1515 58.1377 14.2075 58.1137 14.4162C58.0945 14.5638 58.0993 14.7675 58.1137 14.8642C58.1329 14.9609 58.1473 15.0882 58.1473 15.1442C58.1473 15.2001 58.1377 15.3223 58.1233 15.4089C58.1041 15.5107 58.0657 15.5768 58.0225 15.5768C57.9793 15.5768 57.9505 15.6227 57.9505 15.6888C57.9505 15.755 57.9361 15.8263 57.9121 15.8568C57.8881 15.8874 57.8401 16.0044 57.8017 16.1164C57.7392 16.3099 57.744 16.3353 57.8209 16.4219C57.8833 16.488 57.9025 16.5542 57.8785 16.6204C57.8593 16.6764 57.8353 16.7833 57.8257 16.8596C57.8113 16.9564 57.7777 17.0022 57.7248 17.0022C57.6624 17.0022 57.6288 17.0582 57.6048 17.1905C57.5856 17.2974 57.5664 17.6079 57.5664 17.8777V18.3766C57.9553 18.4224 58.4402 18.4275 58.8867 18.4173L59.7029 18.4021C59.7269 17.5978 59.7365 17.5621 59.8229 17.5621C59.8869 17.5621 59.9109 17.5367 59.8949 17.4858C59.8805 17.4451 59.8949 17.3789 59.9189 17.3432C59.9477 17.3127 59.9717 17.1651 59.9717 17.0276C59.9717 16.8956 59.9841 16.6676 59.9935 16.4931C59.9943 16.4791 59.995 16.4656 59.9957 16.4524C60.0149 16.1572 60.0197 16.1368 60.135 16.1368H60.255C60.241 15.848 60.2303 15.6372 60.2226 15.4855C60.2119 15.2734 60.207 15.1768 60.207 15.1442C60.2022 15.0882 60.2118 14.966 60.2262 14.8744C60.2454 14.7776 60.2838 14.7115 60.327 14.7115C60.3654 14.7115 60.4038 14.6606 60.4134 14.5944C60.423 14.5028 60.4614 14.4773 60.6391 14.4468C60.7591 14.4315 61.3976 14.4111 62.0554 14.4111C62.7179 14.406 63.3708 14.4264 63.5101 14.4468C63.7261 14.4773 63.7597 14.4977 63.7597 14.5944C63.7597 14.6758 63.7933 14.7166 63.8654 14.7216C63.9662 14.7369 63.9806 14.7725 64.0046 15.0678C64.019 15.2511 64.0478 15.4954 64.0622 15.6125C64.0814 15.7448 64.0766 15.8415 64.0478 15.8568C64.0238 15.8721 63.9998 16.0655 63.9998 16.2895C63.9998 16.6917 63.9998 16.6967 64.1198 16.6967C64.2302 16.6967 64.2398 16.7171 64.2398 16.9106C64.2398 17.0327 64.2686 17.2058 64.3022 17.2974C64.3503 17.44 64.3503 17.4705 64.2878 17.5112C64.2494 17.5367 64.2398 17.5621 64.2638 17.5621C64.2878 17.5621 64.2782 17.5825 64.2398 17.6079C64.1774 17.6487 64.1774 17.6792 64.2398 17.8879C64.2878 18.0508 64.3407 18.1221 64.3935 18.1221C64.4511 18.1221 64.4703 18.1475 64.4559 18.1984C64.4415 18.2392 64.4559 18.285 64.4799 18.3003C64.5039 18.3155 64.5183 18.3461 64.5039 18.3766C64.4895 18.4072 64.4943 18.4275 64.5135 18.4275C64.5174 18.4275 64.5347 18.4276 64.5639 18.4279C64.7154 18.429 65.1846 18.4326 65.7282 18.4326L66.9044 18.4377C66.9236 17.2822 66.9092 16.9513 66.8804 16.9106C66.8516 16.88 66.842 16.8138 66.8564 16.7731C66.8724 16.7222 66.8484 16.6967 66.7844 16.6967C66.7028 16.6967 66.6884 16.6611 66.6884 16.4677C66.6884 16.3404 66.6644 16.1877 66.6355 16.1215C66.5971 16.0452 66.5971 15.979 66.6307 15.9077C66.6595 15.8466 66.6692 15.6532 66.6499 15.4089C66.6211 15.0474 66.6067 15.0169 66.5059 15.0169C66.4099 15.0169 66.4003 14.9914 66.4003 14.7624C66.4003 14.6198 66.3763 14.462 66.3523 14.406C66.3235 14.3449 66.3235 14.2788 66.3475 14.238C66.3715 14.2075 66.3955 14.1057 66.4051 14.0242C66.4099 13.9428 66.4099 13.8105 66.4099 13.729V13.729C66.4003 13.617 66.3763 13.5916 66.2803 13.5916C66.1698 13.5916 66.1602 13.5712 66.1362 13.2963C66.1218 13.1385 66.1122 12.7618 66.1122 12.4564V11.9117C65.8818 11.9117 65.8722 11.8913 65.8722 11.6826C65.8722 11.5554 65.8482 11.4026 65.8194 11.3365C65.7714 11.2448 65.781 11.1939 65.8674 11.0565C65.9442 10.9343 65.9586 10.8681 65.9202 10.7918C65.8962 10.7358 65.8722 10.634 65.8722 10.5627C65.8722 10.4609 65.8482 10.4355 65.7522 10.4355C65.6417 10.4355 65.6321 10.41 65.6081 10.1657C65.5937 10.0231 65.5841 9.7126 65.5841 9.47844C65.5841 9.24937 65.5601 9.05084 65.5361 9.03557C65.5121 9.0203 65.4881 8.95412 65.4881 8.88285C65.4881 8.8014 65.4593 8.75559 65.4161 8.75559C65.3633 8.75559 65.3441 8.6945 65.3441 8.52652C65.3441 8.39926 65.3153 8.24145 65.2817 8.17527C65.2336 8.06837 65.2384 8.03783 65.3153 7.95638C65.3777 7.89021 65.3921 7.82912 65.3681 7.73749C65.3664 7.72907 65.3645 7.72 65.3626 7.71043C65.3481 7.63904 65.328 7.53952 65.3153 7.4677C65.3057 7.38116 65.2673 7.33025 65.2096 7.33025C65.1424 7.33025 65.1136 7.23353 65.0416 6.76012C64.9888 6.44451 64.96 6.06272 64.9696 5.9151C64.9792 5.69112 64.9696 5.65039 64.8976 5.65039C64.8304 5.65039 64.816 5.60458 64.816 5.42132C64.816 5.29406 64.792 5.14134 64.7631 5.07517C64.7199 4.98354 64.7247 4.93263 64.7968 4.82064C64.8736 4.69847 64.8784 4.65775 64.8256 4.55085C64.7968 4.48467 64.7679 4.38286 64.7679 4.32687C64.7679 4.26578 64.7343 4.22506 64.6815 4.22506C64.6191 4.22506 64.5855 4.15379 64.5375 3.90945C64.5039 3.73128 64.4655 3.49712 64.4511 3.38513C64.4367 3.26804 64.4463 3.16114 64.4751 3.1306C64.5039 3.10515 64.5279 2.95753 64.5279 2.8099C64.5279 2.56047 64.5183 2.5452 64.4079 2.5452C64.2974 2.5452 64.2878 2.52483 64.2686 2.2754C64.259 2.13287 64.235 1.9547 64.2158 1.88343C64.1918 1.7918 64.2062 1.73072 64.2686 1.66454C64.3551 1.57291 64.3551 1.55764 64.283 1.33366C64.2254 1.16058 64.1774 1.08932 64.1006 1.07914C64.0094 1.06895 63.9998 1.03841 63.9998 0.697349V0.330834C61.8585 0.310472 61.1432 0.29011 61.0231 0.274838C60.9031 0.259567 60.7735 0.269748 60.7351 0.300291ZM62.1414 3.27318C62.151 3.39026 62.1462 3.65497 62.1222 3.85859C62.0838 4.1742 62.0646 4.2251 61.983 4.2251C61.911 4.2251 61.8774 4.27092 61.8582 4.39309C61.8438 4.47962 61.8342 4.65779 61.8342 4.78505C61.8342 4.91232 61.815 5.03958 61.791 5.06503C61.7621 5.09557 61.7477 5.2941 61.7525 5.51299C61.7669 5.85915 61.7573 5.90496 61.6853 5.90496C61.6181 5.90496 61.5989 5.95078 61.5989 6.12385C61.5989 6.24093 61.5701 6.40892 61.5365 6.49546C61.4885 6.63799 61.4885 6.66853 61.5701 6.74998C61.6325 6.82125 61.6469 6.88233 61.6229 6.97396C61.6037 7.04523 61.5797 7.20813 61.5701 7.34557C61.5557 7.5441 61.5365 7.58482 61.4453 7.60009C61.3541 7.61027 61.3349 7.66118 61.2772 8.01751C61.234 8.2924 61.2292 8.44002 61.2628 8.47566C61.2916 8.5062 61.3109 8.70473 61.3109 8.92362C61.3109 9.30541 61.3109 9.31559 61.1908 9.31559C61.0804 9.31559 61.0708 9.33595 61.0708 9.53448C61.0708 9.65156 61.042 9.81954 61.0084 9.90608C60.9604 10.0486 60.9604 10.0792 61.0372 10.1606C61.098 10.2251 61.1172 10.2913 61.0948 10.3591C61.0756 10.4151 61.0516 10.5373 61.042 10.6289C61.0276 10.7613 61.0036 10.7918 60.9028 10.7918C60.7923 10.7918 60.7827 10.8122 60.7587 11.0871C60.7443 11.2449 60.7347 11.423 60.7395 11.479C60.7395 11.535 60.7491 11.8303 60.7635 12.1408L60.7875 12.7008C61.0612 12.7568 61.6181 12.7771 62.199 12.7771C62.78 12.7771 63.3561 12.7618 63.4857 12.7415L63.7114 12.7008C63.7114 12.2121 63.697 12.1663 63.6297 12.1663C63.5529 12.1663 63.5433 12.1204 63.5577 11.7997C63.5673 11.5758 63.5529 11.3874 63.5193 11.3263C63.4857 11.2703 63.4713 11.1583 63.4857 11.0718C63.5001 10.9853 63.4857 10.7511 63.4569 10.5475C63.4089 10.2522 63.3801 10.181 63.3177 10.181C63.2457 10.181 63.2217 10.1097 63.1833 9.79918C63.1592 9.59047 63.1352 9.35122 63.1352 9.26468C63.1352 9.17814 63.1737 9.07633 63.2217 9.03052C63.2937 8.95925 63.2937 8.92362 63.2457 8.78618C63.2121 8.69964 63.1833 8.53165 63.1833 8.41457C63.1833 8.25168 63.164 8.19568 63.1112 8.19568C63.0584 8.19568 63.0392 8.13459 63.0392 7.94116C63.0392 7.80371 63.0152 7.67136 62.9864 7.651C62.948 7.62555 62.9336 7.47792 62.948 7.22849C62.9576 7.01978 62.948 6.70417 62.9288 6.53109C62.9 6.23075 62.8856 6.21039 62.7752 6.21039C62.6647 6.21039 62.6551 6.19003 62.6359 5.92023C62.6215 5.75734 62.5975 5.54354 62.5783 5.44682C62.5543 5.30428 62.5687 5.23302 62.6551 5.09048C62.7464 4.94286 62.756 4.89195 62.708 4.80033C62.6791 4.73415 62.6551 4.58143 62.6551 4.45417C62.6551 4.24546 62.6455 4.2251 62.5351 4.2251C62.4199 4.2251 62.4151 4.20983 62.4151 3.90949C62.4151 3.74693 62.4071 3.51233 62.402 3.36421C62.4016 3.34999 62.4011 3.33657 62.4007 3.32408C62.3863 3.06956 62.3767 3.05429 62.2519 3.05429C62.1222 3.05429 62.1174 3.05938 62.1414 3.27318Z" fill="white"></path>
  <path d="M44.166 9.42757C44.166 4.64761 44.1804 0.631213 44.1948 0.49886V0.493769C44.2236 0.28506 44.238 0.254517 44.3389 0.254517C44.4013 0.254517 44.4685 0.274879 44.4877 0.305421C44.5069 0.335964 44.9054 0.356326 45.5103 0.356326C46.2401 0.356326 46.5137 0.341055 46.5569 0.29015C46.6049 0.244336 46.6145 0.259607 46.6145 0.366507C46.6145 0.483589 46.6337 0.509041 46.8546 0.509041V18.1221H46.7346C46.6385 18.1221 46.6193 18.1425 46.6385 18.2239C46.6529 18.285 46.6289 18.3614 46.5761 18.4072C46.5281 18.453 46.4561 18.4734 46.3985 18.4581C46.3457 18.4428 45.8848 18.4276 44.4541 18.4276L44.4397 18.285C44.4301 18.173 44.4061 18.1425 44.166 18.1221V9.42757Z" fill="white"></path>
  <path fill-rule="evenodd" clip-rule="evenodd" d="M14.7281 9.34104C14.7185 15.3733 14.7281 18.4276 14.7617 18.4276C14.7792 18.4306 15.2275 18.43 15.8998 18.429C16.3338 18.4283 16.8612 18.4276 17.4263 18.4276C18.8666 18.4276 20.2301 18.4123 20.4654 18.3868C20.859 18.3512 20.8831 18.3461 20.8831 18.2341C20.8831 18.1323 20.9023 18.1221 21.1567 18.1272C21.3103 18.1323 21.4928 18.1323 21.5648 18.1272C21.6752 18.1221 21.6992 18.0967 21.6992 17.9949C21.6992 17.8778 21.7184 17.8676 21.9633 17.8421C22.1889 17.8218 22.2273 17.8014 22.2273 17.7149C22.2273 17.647 22.2513 17.6216 22.2994 17.6385C22.3378 17.6538 22.405 17.6334 22.4434 17.6029C22.4866 17.5673 22.5202 17.4756 22.5154 17.3993C22.5154 17.3178 22.5442 17.2415 22.5778 17.2211C22.6162 17.1957 22.6594 17.1397 22.6738 17.0938C22.6978 17.0328 22.7603 17.0022 22.8515 17.0022C22.9907 17.0022 22.9955 16.992 23.0195 16.7222C23.0387 16.4983 23.0627 16.4423 23.1251 16.4423C23.1875 16.4423 23.2067 16.4066 23.1923 16.3252C23.1827 16.2641 23.2019 16.1979 23.2308 16.1725C23.2596 16.1521 23.2836 16.0808 23.2836 16.0096C23.2836 15.9078 23.3124 15.8772 23.4132 15.867C23.5332 15.8569 23.5476 15.8365 23.5332 15.7041C23.5318 15.6794 23.5299 15.6513 23.5279 15.6227C23.5235 15.5572 23.5188 15.4886 23.5188 15.4496C23.5188 15.3936 23.5284 15.2715 23.5428 15.1798C23.5668 15.0475 23.5956 15.0169 23.6917 15.0169H23.8117C23.8069 14.1668 23.8213 13.8461 23.8357 13.7545C23.8549 13.6221 23.8837 13.5916 23.9797 13.5916C24.0901 13.5916 24.0997 13.5712 24.1237 13.276C24.1258 13.2504 24.1281 13.2225 24.1305 13.1931C24.1448 13.0181 24.1635 12.7879 24.1718 12.6397C24.191 12.3699 24.1766 12.2935 24.0949 12.1561C24.0085 12.0186 23.9941 11.9525 24.0277 11.7845C24.0469 11.6725 24.0709 10.5984 24.0853 9.39194C24.0949 7.98188 24.0853 7.15213 24.0517 7.0605C24.0133 6.94851 24.0229 6.89251 24.0997 6.77034C24.1766 6.64308 24.191 6.56163 24.1718 6.29692C24.1622 6.12385 24.1381 5.84896 24.1237 5.68607C24.0997 5.41627 24.0901 5.39591 23.9797 5.39591C23.8837 5.39591 23.8549 5.36537 23.8309 5.22792C23.8165 5.14138 23.8069 4.88177 23.8117 4.65779C23.8117 4.41853 23.7877 4.19455 23.7541 4.10802C23.7205 4.03166 23.6628 3.97057 23.6292 3.97057C23.5908 3.97057 23.5716 3.87385 23.5716 3.66514C23.5716 3.38008 23.562 3.35971 23.4612 3.35971C23.3796 3.35971 23.346 3.31899 23.298 3.14591C23.2644 3.02374 23.2308 2.85067 23.2164 2.75904C23.1971 2.6725 23.1683 2.59614 23.1395 2.59614C23.1107 2.59614 23.0579 2.55542 23.0147 2.50451C22.9667 2.45361 22.9475 2.37216 22.9667 2.30089C22.9907 2.21435 22.9763 2.1889 22.8995 2.1889C22.8371 2.1889 22.8035 2.15327 22.8035 2.09727C22.8083 2.05146 22.7747 1.9751 22.7314 1.93438C22.6882 1.89365 22.6546 1.82748 22.6594 1.79184C22.6594 1.7613 22.6162 1.72058 22.5634 1.70531C22.5106 1.69003 22.4578 1.63404 22.4434 1.57804C22.429 1.52205 22.3858 1.47623 22.3474 1.47623C22.309 1.47623 22.2417 1.43551 22.1985 1.3846C22.1553 1.33879 22.1361 1.25734 22.1505 1.20644C22.1697 1.14535 22.1505 1.11481 22.0689 1.10463C21.9921 1.09954 21.9585 1.05881 21.9489 0.951913C21.9393 0.819561 21.9297 0.81447 21.6752 0.81447C21.4352 0.81447 21.4112 0.804289 21.4112 0.697389C21.4112 0.60067 21.3776 0.580308 21.1855 0.544674C21.0559 0.524312 20.8831 0.509041 20.7966 0.509041C20.6622 0.509041 20.643 0.493769 20.643 0.381779C20.643 0.259607 20.6286 0.254517 20.3789 0.254517C20.2349 0.254517 20.1053 0.274879 20.0909 0.305421C20.0765 0.335964 19.1883 0.356326 17.5703 0.356326C15.9524 0.356326 15.0642 0.335964 15.0498 0.305421C15.0354 0.274879 14.9634 0.254517 14.8818 0.254517H14.7377L14.7281 9.34104ZM17.1586 2.54522C17.1778 2.69793 17.1922 5.75731 17.1922 9.34101C17.1922 12.9247 17.1826 15.9892 17.1634 16.1521L17.1346 16.4422C17.5619 16.3964 18.018 16.3761 18.4213 16.3608C19.0262 16.3455 19.1654 16.3557 19.223 16.4168C19.2759 16.4728 19.3527 16.483 19.5255 16.4626C19.6503 16.4422 19.7656 16.4219 19.7896 16.4117C19.8088 16.4015 19.8232 16.3353 19.8232 16.2641C19.8232 16.1826 19.852 16.1368 19.8952 16.1368C19.9336 16.1368 20.0152 16.1623 20.0776 16.1928C20.1352 16.2234 20.2313 16.2335 20.2937 16.2183C20.3561 16.1979 20.4089 16.1368 20.4233 16.0605C20.4377 15.9892 20.4905 15.923 20.5433 15.9077C20.6009 15.8925 20.6538 15.8212 20.6778 15.7296C20.697 15.6278 20.7402 15.5769 20.7978 15.5769C20.865 15.5769 20.8794 15.531 20.8794 15.2969C20.8794 15.0322 20.8842 15.0169 20.9994 15.0169C21.1099 15.0169 21.1243 14.9915 21.1483 14.7471C21.1627 14.6046 21.1963 14.457 21.2251 14.4315C21.2491 14.401 21.2635 14.2737 21.2539 14.1413C21.2395 13.9377 21.2539 13.897 21.3259 13.897C21.3787 13.897 21.4171 13.8461 21.4363 13.729C21.4482 13.6576 21.4633 13.5274 21.4764 13.4154C21.4791 13.3916 21.4818 13.3686 21.4843 13.3472C21.4987 13.1945 21.4795 13.108 21.4267 13.0418C21.3643 12.9705 21.3547 12.8942 21.3787 12.6498C21.3868 12.5552 21.401 12.417 21.4153 12.278C21.4264 12.1701 21.4375 12.0617 21.4459 11.9728C21.4699 11.6979 21.4987 11.6063 21.5515 11.6063C21.5996 11.6063 21.6332 11.5299 21.662 11.367C21.6812 11.2296 21.6956 10.298 21.6956 9.29011C21.6956 8.28219 21.6764 7.371 21.6572 7.2641C21.638 7.14701 21.5948 7.07575 21.5515 7.07575C21.4987 7.07575 21.4699 6.98412 21.4459 6.68378C21.4267 6.46489 21.3979 6.21546 21.3787 6.13401C21.3547 6.02202 21.3739 5.95584 21.4363 5.88457C21.5179 5.80313 21.5179 5.77258 21.4699 5.63005C21.4363 5.54351 21.4075 5.32971 21.4075 5.15154C21.4075 4.84102 21.4075 4.83593 21.2779 4.83593C21.1531 4.84102 21.1483 4.83084 21.2155 4.75449C21.2731 4.68831 21.2779 4.60686 21.2539 4.38288C21.2347 4.22508 21.2107 4.05709 21.1963 4.00618C21.1771 3.96037 21.1099 3.90438 21.0426 3.87892C20.9226 3.84838 20.9178 3.82802 20.9466 3.6244C20.9706 3.45641 20.9562 3.39533 20.8938 3.32915C20.8458 3.28334 20.769 3.26297 20.7258 3.27824C20.6538 3.3037 20.6346 3.26806 20.6153 3.05426C20.5913 2.82519 20.5817 2.79974 20.4713 2.79974C20.3753 2.79974 20.3513 2.77429 20.3513 2.67248C20.3513 2.5554 20.3321 2.54522 20.0872 2.51976C19.852 2.4994 19.8232 2.47904 19.8232 2.37723V2.26524H17.125L17.1586 2.54522Z" fill="white"></path>
  <path d="M0 2.71322C0 1.56786 0.0144031 0.549765 0.0288062 0.447955L0.0576123 0.254517H1.34429V0.407231C1.34429 0.534493 1.36349 0.559946 1.58434 0.559946V1.76639C1.58434 2.43324 1.60354 3.06447 1.65635 3.35971H5.08909V2.27544C5.08909 1.68494 5.10829 1.10972 5.1611 0.81447H6.64942L6.68783 1.05372C6.70703 1.19117 6.72144 1.7613 6.72144 3.35971H10.4662V3.207C10.4662 3.07974 10.4854 3.05428 10.7063 3.05428V0.254517H12.0506V4.78505H0V2.71322Z" fill="white"></path>
  <path d="M69.3039 0.468309C69.2895 0.422495 69.2895 0.341047 69.3039 0.295232C69.3231 0.229056 69.3664 0.213785 69.4864 0.239237C69.568 0.254509 69.6544 0.290142 69.6736 0.310504C69.688 0.335956 70.0913 0.356318 70.5714 0.356318C71.1043 0.356318 71.45 0.335956 71.4644 0.305413C71.4788 0.274871 71.5412 0.254509 71.6084 0.254509C71.7044 0.254509 71.7333 0.285052 71.7621 0.422495C71.7813 0.509033 71.7957 4.15382 71.8005 16.4524L72.0645 16.4168C72.2086 16.3964 72.9239 16.371 73.6489 16.3608C74.5082 16.3455 74.9836 16.3557 75.0172 16.3914C75.0412 16.4219 75.166 16.4423 75.5213 16.4423V16.7222C75.5213 16.9564 75.5357 17.0022 75.6077 17.0022C75.6797 17.0022 75.6893 17.048 75.6749 17.3687C75.6653 17.6182 75.6845 17.7607 75.7229 17.8065C75.7757 17.8574 75.7565 17.8727 75.6413 17.8676C75.4973 17.8676 75.4973 17.8676 75.5309 18.0814C75.5501 18.2036 75.5501 18.3308 75.5309 18.3665C75.5069 18.4123 74.8347 18.4275 72.4246 18.4275C70.0145 18.4275 69.3423 18.4123 69.3135 18.3665C69.2943 18.3308 69.2895 18.2596 69.3039 18.2087C69.3231 18.1425 69.2991 18.1221 69.0879 18.1221V0.559938H69.2079C69.2991 0.559938 69.3231 0.539576 69.3039 0.468309Z" fill="white"></path>
  <path d="M56.1986 0.310496C56.2274 0.285044 56.2994 0.254501 56.3666 0.24432C56.4338 0.234139 56.5011 0.254501 56.5203 0.290134C56.5443 0.325768 56.5491 0.402125 56.5347 0.45812C56.5187 0.525994 56.5347 0.55993 56.5827 0.55993C56.6451 0.55993 56.6547 0.671921 56.6547 1.24715C56.6547 1.82237 56.6451 1.93436 56.5827 1.93436C56.5347 1.93436 56.5203 1.96321 56.5395 2.0209C56.5539 2.0718 56.5395 2.14816 56.5011 2.19398C56.4482 2.26015 56.3042 2.27033 55.5985 2.26524C55.0367 2.26524 54.7247 2.23979 54.6479 2.19907C54.5903 2.16852 54.4606 2.13798 54.3598 2.13798C54.2638 2.13798 54.1534 2.15834 54.1246 2.1787C54.0765 2.20416 54.0621 3.8382 54.0621 17.8676H53.9421C53.8317 17.8676 53.8221 17.8879 53.7981 18.4377H52.7659C52.1993 18.4326 51.6616 18.4174 51.5752 18.3919C51.4648 18.3614 51.4168 18.3206 51.4168 18.2494C51.412 18.1934 51.4168 18.0101 51.4216 17.8421C51.4264 17.6741 51.4504 17.5113 51.4744 17.4858C51.4984 17.4553 51.5176 14.4111 51.5128 10.2064C51.5128 4.95811 51.4936 2.8761 51.4552 2.60631C51.412 2.3416 51.3784 2.23979 51.3256 2.23979C51.2871 2.23979 51.1815 2.20925 51.0951 2.17361C50.9703 2.1278 50.9271 2.1278 50.9031 2.17361C50.8791 2.21943 50.5766 2.23979 48.757 2.26524L48.733 1.42531C48.7186 0.962079 48.7138 0.509025 48.7186 0.417397C48.733 0.264682 48.7474 0.254501 48.901 0.254501C48.9923 0.254501 49.0787 0.274863 49.0931 0.305406C49.1075 0.341039 50.3365 0.356311 52.6362 0.356311C54.7007 0.356311 56.1746 0.335949 56.1986 0.310496Z" fill="white"></path>
  <path d="M27.0054 0.458156C26.991 0.432703 26.991 0.366527 26.9958 0.315622C27.0102 0.244355 27.0534 0.229084 27.1878 0.239265C27.2886 0.249446 27.375 0.279988 27.3846 0.305441C27.3942 0.335984 27.6871 0.356346 28.1192 0.356346C28.5129 0.356346 28.8538 0.335984 28.8826 0.310531C28.9066 0.290169 28.9978 0.254536 29.0842 0.234174C29.2138 0.208722 29.2426 0.218903 29.2618 0.305441C29.2762 0.361436 29.2762 0.432703 29.2618 0.458156C29.2474 0.488698 29.281 0.50906 29.3339 0.50906C29.4059 0.50906 29.4395 0.554875 29.4635 0.671956C29.4827 0.763585 29.5019 4.63235 29.5115 9.2647C29.5259 15.9689 29.5163 17.7353 29.4683 17.9083C29.4251 18.056 29.3771 18.1221 29.3243 18.1221C29.2666 18.1221 29.2474 18.1527 29.2618 18.2138C29.2762 18.2596 29.2714 18.3309 29.2522 18.3665C29.2234 18.4174 28.9642 18.4327 28.1336 18.4327C27.303 18.4327 27.0438 18.4174 27.015 18.3665C26.9958 18.3309 26.991 18.2596 27.0054 18.2138C27.0198 18.1527 27.0006 18.1221 26.9477 18.1221C26.8661 18.1221 26.8613 17.6691 26.8613 9.3156C26.8613 0.962113 26.8661 0.50906 26.9477 0.50906C26.991 0.50906 27.0198 0.488698 27.0054 0.458156Z" fill="white"></path>
  <path d="M36.8957 0.259615C37.1981 0.234162 37.2317 0.218891 37.2461 0.117081C37.2605 0 37.2701 0 38.0527 0C38.7729 0 38.8401 0.010181 38.8401 0.0916288C38.8401 0.157805 38.9073 0.193438 39.1137 0.244343C39.2674 0.279977 39.4882 0.325791 39.6082 0.335972C39.7331 0.351244 39.8435 0.341063 39.8675 0.31052C39.8963 0.279977 39.9779 0.254524 40.0499 0.254524C40.1604 0.254524 40.1844 0.274886 40.1844 0.381786C40.1844 0.498868 40.2084 0.514139 40.6885 0.565044L40.7269 0.804297C40.7461 0.93665 40.7605 1.28789 40.7605 1.59332C40.7605 1.9802 40.7413 2.15837 40.6981 2.20418C40.6549 2.2449 40.4676 2.26527 40.1075 2.26018C39.8195 2.25509 39.469 2.23981 39.3346 2.21945C39.1233 2.194 39.0801 2.17364 39.0801 2.0871C39.0801 1.99038 39.0465 1.98529 38.408 1.98529C37.7694 1.98529 37.7358 1.99038 37.7358 2.0871C37.7358 2.16855 37.6974 2.194 37.5198 2.21436C37.3998 2.22963 37.2605 2.21436 37.2077 2.18891C37.1405 2.15328 37.0541 2.15837 36.9197 2.20418C36.7916 2.2449 36.7276 2.29581 36.7276 2.3569C36.7276 2.41289 36.6892 2.44343 36.6124 2.44343C36.5452 2.44343 36.4588 2.48416 36.4156 2.53506C36.3675 2.58088 36.3483 2.66232 36.3627 2.71323C36.3868 2.77941 36.3627 2.79977 36.2715 2.79977C36.1755 2.79977 36.1515 2.82522 36.1515 2.92703C36.1515 3.02884 36.1275 3.05429 36.0219 3.06956C35.9307 3.07465 35.8826 3.11029 35.873 3.18155C35.8682 3.24773 35.8106 3.29864 35.7194 3.32409C35.633 3.34445 35.5658 3.40044 35.5514 3.46153C35.537 3.51753 35.5514 3.60915 35.5754 3.66515C35.5994 3.72115 35.6234 3.80259 35.6234 3.84332C35.6234 3.89422 35.5754 3.91967 35.4794 3.91967C35.3545 3.91967 35.3305 3.94004 35.3065 4.08766C35.2921 4.1742 35.2777 4.31164 35.2729 4.39309C35.2681 4.47454 35.2345 4.53053 35.1913 4.53053C35.1481 4.53053 35.0953 4.61707 35.0617 4.73415C35.0185 4.8665 35.0137 4.96831 35.0425 5.0294C35.0665 5.07521 35.0713 5.29411 35.0569 5.513C35.0281 5.85915 35.0137 5.90496 34.9272 5.90496C34.8456 5.90496 34.8216 5.95587 34.7784 6.27148C34.7448 6.48528 34.74 6.66345 34.7688 6.69399C34.788 6.72453 34.8072 6.89252 34.8072 7.07578C34.8072 7.2743 34.7832 7.43211 34.7496 7.46774C34.6968 7.52374 34.6968 7.5441 34.7496 7.6001C34.7928 7.64591 34.8072 8.08369 34.8072 9.50903C34.8072 10.9293 34.7928 11.3569 34.7496 11.3823C34.7016 11.4078 34.7016 11.4231 34.7496 11.474C34.7832 11.5096 34.8072 11.6572 34.8072 11.8608C34.8072 12.0441 34.7832 12.2121 34.7544 12.2426C34.716 12.2783 34.716 12.3241 34.7544 12.4106C34.7832 12.4717 34.8072 12.6091 34.8072 12.716C34.8072 12.8178 34.8264 12.9909 34.8456 13.0978C34.8696 13.2302 34.9032 13.2862 34.9656 13.2862C35.0377 13.2862 35.0473 13.3371 35.0425 13.7087C35.0425 13.9378 35.0521 14.2025 35.0665 14.2941C35.0857 14.4061 35.1241 14.457 35.1817 14.457C35.2441 14.457 35.2681 14.5028 35.2729 14.6504C35.2777 14.7522 35.3113 14.9355 35.3449 15.0577C35.3929 15.2256 35.4313 15.2715 35.5178 15.2715C35.6042 15.2715 35.6234 15.302 35.6234 15.4242C35.6234 15.5413 35.6426 15.5769 35.7194 15.5769C35.7834 15.5769 35.8074 15.6023 35.7914 15.6532C35.777 15.694 35.801 15.7856 35.8394 15.8569C35.8778 15.9281 35.9114 16.0198 35.9114 16.0605C35.9114 16.1165 35.9691 16.1368 36.1515 16.1368C36.3579 16.1368 36.3868 16.147 36.3627 16.2285C36.3483 16.2743 36.3627 16.3506 36.4012 16.3914C36.4348 16.4372 36.5548 16.4881 36.67 16.5084C36.7804 16.5288 36.8957 16.5339 36.9197 16.5186C36.9437 16.5034 36.9677 16.539 36.9677 16.595C36.9677 16.6917 37.0013 16.6968 37.4958 16.6968C37.9327 16.6968 38.0239 16.6815 38.0239 16.6204C38.0239 16.5797 38.0623 16.5441 38.1103 16.5441C38.1535 16.5441 38.2351 16.5135 38.288 16.4677C38.3408 16.427 38.4224 16.3914 38.4704 16.3914C38.5232 16.3914 38.552 16.3506 38.552 16.2641C38.552 16.1572 38.576 16.1368 38.696 16.1368C38.8209 16.1368 38.8449 16.1165 38.8689 15.9739C38.8833 15.8823 38.8977 15.7551 38.9025 15.694C38.9073 15.6176 38.9457 15.5769 38.9985 15.5769C39.0657 15.5769 39.0753 15.5413 39.0609 15.3631C39.0513 15.2409 39.0705 15.0577 39.0993 14.9558C39.1345 14.8303 39.1841 14.7624 39.2482 14.7522C39.325 14.742 39.3538 14.6708 39.4018 14.3806C39.4306 14.1821 39.4594 13.9378 39.4594 13.8359C39.4642 13.729 39.4402 13.6323 39.4162 13.6171C39.3874 13.6018 39.3682 13.1691 39.3682 12.4717C39.3682 11.6674 39.3874 11.3212 39.4306 11.2449C39.4786 11.1583 39.4738 11.1329 39.3922 11.0667C39.3154 11.0107 39.1281 10.9955 38.5424 10.9955C37.8175 10.9955 37.7838 10.9904 37.7838 10.8936C37.7838 10.8224 37.7598 10.7969 37.7022 10.8173C37.6542 10.8326 37.5822 10.8326 37.5438 10.8173C37.4862 10.7969 37.4766 10.7206 37.491 10.4762C37.5006 10.2981 37.5246 10.1352 37.5486 10.1046C37.5726 10.0741 37.5918 9.98753 37.5918 9.901C37.5918 9.81446 37.5726 9.72792 37.5486 9.69738C37.5246 9.66683 37.5006 9.50394 37.491 9.32577C37.4766 9.06107 37.4862 9.00507 37.5582 8.98471C37.6014 8.96944 37.6638 8.96944 37.6878 8.98471C37.7118 8.99998 37.7358 8.95417 37.7358 8.75564H41.4806L41.5046 9.03561C41.5286 9.29523 41.5383 9.31559 41.7687 9.31559V18.1221H41.6487C41.5575 18.1221 41.5335 18.1425 41.5527 18.2138C41.5671 18.2596 41.5431 18.341 41.495 18.3868C41.4182 18.4632 41.3702 18.4683 41.1206 18.4276C40.9621 18.397 40.8229 18.3767 40.8085 18.3767C40.7941 18.3767 40.7797 18.285 40.7749 18.173C40.7653 18.061 40.7365 17.9236 40.7125 17.8676C40.6885 17.8116 40.6645 17.72 40.6645 17.664C40.6645 17.5961 40.6325 17.5622 40.5684 17.5622C40.4868 17.5622 40.4676 17.5164 40.4436 17.2975C40.4244 17.1498 40.4292 16.9462 40.4436 16.8495C40.4628 16.7528 40.4772 16.6255 40.4772 16.5695C40.4772 16.5135 40.4676 16.3914 40.4532 16.3048C40.4292 16.1572 40.4052 16.1368 40.2804 16.1368C40.1604 16.1368 40.1364 16.1165 40.1364 16.0096C40.1364 15.9078 40.1123 15.8823 40.0163 15.8823C39.8963 15.8823 39.8963 15.8874 39.8963 16.6968H39.7667C39.6322 16.6968 39.6322 16.6968 39.6707 16.9513C39.6995 17.16 39.6899 17.2211 39.6226 17.2873C39.5746 17.3331 39.4978 17.3535 39.4546 17.3382C39.3826 17.3127 39.3634 17.3484 39.3442 17.5622C39.325 17.7862 39.3058 17.8167 39.2146 17.8167C39.1521 17.8116 39.0753 17.8472 39.0465 17.8931C39.0129 17.9338 38.9937 18.0051 39.0081 18.0458C39.0273 18.1069 38.9841 18.1221 38.7921 18.1221C38.5568 18.1221 38.552 18.1272 38.552 18.2748C38.552 18.4174 38.5424 18.4276 38.3984 18.397C38.312 18.3817 38.1967 18.3716 38.1439 18.3716C38.0911 18.3716 37.9759 18.3817 37.8943 18.397C37.7983 18.4174 37.7358 18.4581 37.7358 18.5039C37.7358 18.5701 37.6302 18.5803 37.0877 18.5803C36.5452 18.5803 36.4396 18.5701 36.4396 18.5039C36.4396 18.4479 36.3675 18.4225 36.1659 18.4021C36.0123 18.3868 35.8346 18.3767 35.7674 18.3716C35.7002 18.3716 35.585 18.3767 35.5034 18.3868C35.3785 18.4021 35.3593 18.3868 35.3497 18.2647C35.3353 18.1272 35.3257 18.1221 35.0713 18.1374C34.8552 18.1476 34.8024 18.1323 34.7832 18.061C34.7688 18.0101 34.7688 17.9541 34.7784 17.9338C34.7928 17.9083 34.7016 17.8778 34.5768 17.8523C34.3847 17.8218 34.3511 17.7963 34.3511 17.6996C34.3511 17.608 34.3223 17.5876 34.1735 17.5774C34.0054 17.5622 33.991 17.552 33.991 17.4095C33.991 17.2924 33.9718 17.2567 33.895 17.2567C33.823 17.2567 33.8038 17.2313 33.823 17.1549C33.8374 17.0939 33.8182 17.0429 33.775 17.0277C33.7366 17.0124 33.703 16.9462 33.703 16.875C33.703 16.7782 33.6742 16.7426 33.5974 16.7375C33.5157 16.7273 33.4821 16.6866 33.4773 16.5848C33.4629 16.4728 33.4389 16.4423 33.3429 16.4423C33.2325 16.4423 33.2229 16.4219 33.2133 16.1521C33.1989 15.8721 33.1941 15.8569 33.0692 15.8467C32.9492 15.8314 32.9396 15.8161 32.9636 15.694C32.978 15.6125 32.9924 15.5056 32.9876 15.4496C32.9876 15.3936 32.978 15.2715 32.9636 15.1849C32.9396 15.0475 32.9108 15.0169 32.8148 15.0169C32.6996 15.0169 32.6948 15.0017 32.6996 14.7522C32.6996 14.6046 32.69 14.4061 32.6756 14.3195C32.6516 14.1821 32.6227 14.1516 32.5267 14.1516C32.4163 14.1516 32.4067 14.1363 32.4067 13.8868C32.4067 13.7392 32.4259 13.5967 32.4547 13.5661C32.4931 13.5305 32.4931 13.4236 32.4547 13.2098C32.4307 13.0418 32.4067 12.7364 32.4067 12.5379C32.4067 12.1764 32.4019 12.1663 32.2867 12.1663C32.1714 12.1663 32.1666 12.1561 32.1378 11.7234C32.1234 11.474 32.1138 10.9547 32.1138 10.5628C32.1186 10.1453 32.1378 9.845 32.1666 9.83991C32.1955 9.82973 32.2147 9.57011 32.2147 9.21378C32.2147 8.72509 32.2003 8.58256 32.1378 8.51638C32.0754 8.44003 32.0658 8.33313 32.085 7.89025C32.0994 7.59501 32.1234 7.2234 32.1378 7.0656C32.1618 6.81616 32.1811 6.77035 32.2627 6.77035C32.3443 6.77035 32.3635 6.72962 32.3827 6.48019C32.3971 6.31729 32.4355 5.97114 32.4691 5.71153C32.5171 5.33483 32.5123 5.22284 32.4691 5.14139C32.4355 5.0854 32.4067 4.98359 32.4067 4.91232C32.4067 4.81051 32.4307 4.78506 32.5267 4.78506C32.6227 4.78506 32.6516 4.75451 32.6756 4.61707C32.69 4.53053 32.6996 4.332 32.6996 4.18947C32.6948 3.93495 32.6996 3.91967 32.8148 3.91967C32.9108 3.91967 32.9396 3.88913 32.9636 3.75678C32.978 3.66515 32.9876 3.54298 32.9876 3.48698C32.9924 3.43099 32.978 3.32409 32.9636 3.24773C32.9396 3.12556 32.9492 3.1052 33.0452 3.1052C33.1365 3.1052 33.1557 3.06956 33.1893 2.85067C33.2181 2.64705 33.2421 2.59615 33.3141 2.59615C33.3669 2.59615 33.4437 2.56051 33.4821 2.51979C33.5445 2.4587 33.5493 2.39253 33.5253 2.21436C33.4869 1.99547 33.4917 1.98529 33.5974 1.98529C33.655 1.98529 33.7654 1.9242 33.8422 1.84785C33.9238 1.7664 33.991 1.63914 34.0006 1.5526C34.015 1.42025 34.039 1.39479 34.1831 1.37443C34.3127 1.35407 34.3511 1.32353 34.3511 1.24717C34.3511 1.18608 34.3895 1.13518 34.4471 1.11991C34.5095 1.09955 34.548 1.03846 34.5576 0.951921C34.5624 0.870473 34.596 0.814478 34.6392 0.814478C34.6776 0.814478 34.7544 0.83993 34.8072 0.865383C34.86 0.890835 34.9464 0.906107 34.9993 0.890835C35.0569 0.875564 35.1049 0.809387 35.1241 0.722849C35.1433 0.610858 35.1817 0.580315 35.3257 0.549773C35.4217 0.529411 35.585 0.509049 35.6858 0.509049C35.8442 0.509049 35.8634 0.493777 35.8634 0.381786C35.8634 0.274886 35.8874 0.254524 36.0075 0.254524C36.0891 0.254524 36.1659 0.279977 36.1899 0.31052C36.2091 0.346153 36.2811 0.356334 36.3916 0.330882C36.4828 0.305429 36.7132 0.274886 36.8957 0.259615Z" fill="white"></path>
</svg>
