<svg width="76" height="40" xmlns="http://www.w3.org/2000/svg" fill="none">
 <g>
  <title>Layer 1</title>
  <path fill-rule="evenodd" clip-rule="evenodd" d="m67.2031,21.9807c-0.0096,0.0967 -0.0432,0.1426 -0.12,0.1477l-0.1104,0.0152c0,17.272 0,17.3077 0.096,17.3077c0.072,0 0.096,0.0356 0.096,0.1272l0,0.1273l2.2085,0l0,-7.6866c0.216,0 0.24,-0.0255 0.24,-0.1273l0,-0.1273l2.9286,0c0,0.2342 0.0241,0.2546 0.1441,0.2546c0.1296,0 0.144,0.0152 0.144,0.1527c0,0.1222 0.0192,0.1527 0.1104,0.1527c0.0913,0 0.1105,0.0356 0.1441,0.2393c0.0192,0.1374 0.0336,0.3308 0.0336,0.4326c0,0.1731 0.0144,0.1935 0.12,0.1935l0.12,0c0,4.164 0.0144,5.5588 0.0384,5.793c0.0288,0.3512 0.048,0.4174 0.1201,0.4174c0.0576,0 0.0816,0.0407 0.0816,0.1527l0,0.1527l2.2084,0c0,-0.2698 0.0192,-0.3054 0.0961,-0.3054c0.096,0 0.096,-0.0357 0.096,-1.3999c0,-1.3643 0,-1.3999 -0.096,-1.3999c-0.0913,0 -0.0961,-0.0356 -0.0961,-0.5498c0,-0.3003 -0.0144,-1.1351 -0.0336,-1.858l-0.0384,-1.3082c-0.2112,0 -0.216,-0.0204 -0.2256,-0.4226c-0.01,-0.2895 -0.0131,-0.3782 -0.0573,-0.4105c-0.0195,-0.0142 -0.0471,-0.0175 -0.0867,-0.0222c-0.1297,-0.0101 -0.1345,-0.0203 -0.1345,-0.2901c0,-0.2749 0,-0.28 -0.144,-0.28c-0.12,0 -0.144,-0.0203 -0.144,-0.1272c0,-0.1019 -0.024,-0.1273 -0.1201,-0.1273c-0.1008,0 -0.12,-0.0255 -0.12,-0.1527c0,-0.1527 -0.0048,-0.1527 -0.264,-0.1527c-0.2593,0 -0.2641,0 -0.2641,-0.1528c0,-0.1272 -0.0192,-0.1527 -0.12,-0.1527c-0.0961,0 -0.1201,-0.0254 -0.1201,-0.1272c0,-0.1222 0.0144,-0.1273 0.2641,-0.1273c0.2497,0 0.2641,-0.0051 0.2641,-0.1273c0,-0.117 0.024,-0.1272 0.24,-0.1527c0.2209,-0.0254 0.2401,-0.0356 0.2545,-0.168c0.0096,-0.1119 0.0384,-0.1374 0.144,-0.1527c0.12,-0.0102 0.1296,-0.0254 0.1296,-0.2647c0,-0.2392 0.0096,-0.2545 0.1345,-0.2698c0.1248,-0.0102 0.1296,-0.0254 0.144,-0.3054c0.0096,-0.2698 0.0192,-0.2902 0.1296,-0.2902l0.12,0c0.0192,-1.5017 0.0192,-2.4485 0.0144,-3.0797l-0.0144,-1.1454c-0.2304,0 -0.24,-0.0203 -0.24,-0.2189c0,-0.117 -0.0192,-0.3003 -0.0384,-0.4021c-0.024,-0.1374 -0.0624,-0.1934 -0.1297,-0.2036c-0.072,-0.0102 -0.1008,-0.0611 -0.1056,-0.1833c-0.0144,-0.1374 -0.0336,-0.1629 -0.1344,-0.1629c-0.096,0 -0.12,-0.0254 -0.12,-0.1272c0,-0.1069 -0.024,-0.1273 -0.1441,-0.1273c-0.1296,0 -0.144,-0.0153 -0.144,-0.1527c0,-0.1273 -0.0192,-0.1527 -0.12,-0.1527c-0.096,0 -0.12,-0.0255 -0.1152,-0.1222c0,-0.1069 -0.024,-0.1273 -0.1585,-0.1425c-0.1152,-0.0102 -0.1632,-0.0408 -0.1728,-0.1171c-0.0096,-0.0713 -0.0624,-0.112 -0.1921,-0.1375c-0.096,-0.0203 -0.3216,-0.0407 -0.4993,-0.0407c-0.3168,0 -0.3264,-0.0051 -0.3264,-0.1272l0,-0.1273l-5.9005,0l-0.0144,0.1425zm2.4121,4.8208l0,2.9779c1.7668,0 2.3621,-0.0204 2.4582,-0.0407c0.1296,-0.0255 0.1824,-0.0662 0.192,-0.1375c0.0096,-0.0712 0.0576,-0.1069 0.144,-0.1171c0.1105,-0.0101 0.1345,-0.0356 0.1345,-0.1374c0,-0.1069 0.024,-0.1273 0.144,-0.1273c0.1296,0 0.144,-0.0152 0.144,-0.1527c0,-0.1221 0.0192,-0.1527 0.1056,-0.1527c0.0913,0 0.1153,-0.0356 0.1441,-0.1883c0.0192,-0.1069 0.0384,-0.2902 0.0384,-0.4073c0,-0.1985 0.0096,-0.2189 0.12,-0.2189l0.12,0l0,-2.8506c-0.2304,0 -0.24,-0.0204 -0.264,-0.3055c-0.024,-0.285 -0.0336,-0.3054 -0.1441,-0.3054c-0.096,0 -0.12,-0.0254 -0.12,-0.1273c0,-0.1069 -0.024,-0.1272 -0.144,-0.1272c-0.1296,0 -0.144,-0.0153 -0.144,-0.1527c0,-0.1527 -0.0048,-0.1527 -0.2641,-0.1527c-0.2496,0 -0.2641,-0.0051 -0.2641,-0.1273l0,-0.1273l-2.4005,0l0,2.978z" fill="#000000" id="svg_1"/>
  <path d="m46.0449,23.8235l0,-0.9927l0,-0.9926l7.5376,0l0,0.1273c0,0.1018 0.024,0.1272 0.2401,0.1272l0,1.4254l-0.12,0c-0.0961,0 -0.1201,0.0305 -0.1441,0.2799l-2.4245,0.0255l0,15.8823l-2.4005,0l0,-0.1527c0,-0.1273 -0.0192,-0.1527 -0.2401,-0.1527l0,-15.5769l-2.4485,0z" fill="#000000" id="svg_2"/>
  <path style="vector-effect: non-scaling-stroke;" stroke="null" d="m26.2617,22.9581l0,-0.56l0,-0.5599l2.4005,0l0,0.4072c0,0.4022 0,0.4073 0.1201,0.4073c0.12,0 0.12,0.0051 0.12,0.4428c0,0.2495 0.0144,0.6262 0.0336,0.8451c0.0336,0.3614 0.048,0.3919 0.144,0.3919c0.1104,0 0.1104,0.0051 0.1104,1.4763l0.2401,0l0.048,1.6798l0.2401,0l0,0.6465c0,0.3615 0.0192,0.7381 0.0384,0.845c0.0192,0.1171 0.0624,0.1884 0.1056,0.1884c0.048,0 0.0816,0.0764 0.1104,0.2392c0.0192,0.1375 0.0336,0.4684 0.0336,0.7382c0,0.4988 0,0.4988 0.2401,0.4988l0,0.5956c0,0.3309 0.0144,0.7076 0.0336,0.845c0.0336,0.2037 0.0528,0.2393 0.144,0.2393c0.1104,0 0.1104,0.0051 0.1104,1.6799l0.1201,0c0.1152,0 0.12,0.0152 0.12,0.2901c0,0.1629 0.0144,0.4836 0.0384,0.7178c0.0288,0.3869 0.0432,0.4174 0.1392,0.4174c0.1056,0 0.1104,-0.0204 0.1104,-0.4327c0,-0.4174 0.0048,-0.4327 0.1105,-0.4327c0.096,0 0.1104,-0.0305 0.144,-0.392c0.0192,-0.2188 0.0336,-0.5955 0.0336,-0.845c0,-0.4378 0,-0.4428 0.2401,-0.4428l0,-0.6516c0,-0.3564 0.0192,-0.7331 0.0384,-0.84c0.0192,-0.117 0.0624,-0.1883 0.1056,-0.1883c0.048,0 0.0816,-0.0764 0.1104,-0.2393c0.0192,-0.1374 0.0336,-0.5141 0.0336,-1.4406l0.12,0c0.1201,0 0.1201,0 0.1201,-0.4988c0,-0.2698 0.0144,-0.6007 0.0336,-0.7382c0.0288,-0.1629 0.0624,-0.2392 0.1104,-0.2392c0.0432,0 0.0864,-0.0713 0.1056,-0.1884c0.0192,-0.1069 0.0384,-0.4836 0.0384,-1.4915l0.2401,0l0.048,-1.7307l0.24,0l0,-0.84c0,-0.8348 0,-0.8399 0.1105,-0.8399c0.0912,0 0.1104,-0.0356 0.144,-0.2393c0.0192,-0.1374 0.0336,-0.3308 0.0336,-0.4377c0,-0.168 0.0144,-0.1884 0.12,-0.1884c0.0961,0 0.1201,-0.0254 0.1201,-0.2545l1.8724,0l0,1.1199l-0.1201,0c-0.1152,0 -0.12,0.0153 -0.12,0.2902c0,0.1629 -0.0144,0.4836 -0.0384,0.7177c-0.0288,0.3869 -0.0432,0.4174 -0.1392,0.4174c-0.1105,0 -0.1105,0.0051 -0.1105,0.7127c0,0.7076 0,0.7127 -0.1056,0.7127c-0.1008,0 -0.1152,0.0305 -0.144,0.4174c-0.024,0.2342 -0.0384,0.5549 -0.0384,0.7127c0,0.2799 -0.0048,0.2952 -0.2401,0.2952l-0.0096,0.6974c-0.0144,0.6567 -0.0192,0.7025 -0.1104,0.7178c-0.0816,0.0101 -0.1008,0.0661 -0.1344,0.4072c-0.0192,0.2138 -0.0336,0.5345 -0.0336,0.7076c0,0.3105 -0.0048,0.3207 -0.1201,0.3207c-0.12,0 -0.12,0 -0.12,0.4683c0,0.2596 -0.0144,0.5803 -0.0336,0.7178c-0.0288,0.1629 -0.0624,0.2392 -0.1104,0.2392c-0.0432,0 -0.0864,0.0713 -0.1056,0.1884c-0.0192,0.1069 -0.0384,0.4276 -0.0384,1.237l-0.1201,0c-0.12,0 -0.12,0.0101 -0.12,0.3919c0,0.2189 -0.0144,0.5854 -0.0384,0.8196c-0.0288,0.3869 -0.0432,0.4174 -0.1392,0.4174c-0.1105,0 -0.1105,0.0051 -0.1105,0.7127c0,0.7076 0,0.7126 -0.1056,0.7126c-0.1008,0 -0.1152,0.0306 -0.144,0.4175c-0.024,0.2341 -0.0384,0.5548 -0.0384,0.7126c0,0.28 -0.0048,0.2953 -0.2401,0.2953l0,0.5192c0,0.2902 -0.0192,0.6109 -0.0384,0.7178c-0.0192,0.1171 -0.0624,0.1883 -0.1056,0.1883c-0.048,0 -0.0816,0.0764 -0.1104,0.2393c-0.0192,0.1374 -0.0336,0.3309 -0.0336,0.4327c0,0.1832 -0.0096,0.1934 -0.1441,0.1934c-0.12,0 -0.144,0.0204 -0.144,0.2545l-1.8244,0l0,-0.1272c0,-0.1069 -0.024,-0.1273 -0.144,-0.1273c-0.1296,0 -0.144,-0.0153 -0.144,-0.1527c0,-0.1273 -0.0192,-0.1527 -0.1201,-0.1527c-0.1198,0 -0.12,-0.0051 -0.1439,-0.5569l-0.0001,-0.0031l-0.0001,-0.0015c-0.0239,-0.5534 -0.0241,-0.5584 -0.264,-0.5584l0,-0.7127c0,-0.7076 0,-0.7127 -0.1056,-0.7127c-0.1008,0 -0.1152,-0.0305 -0.144,-0.4174c-0.024,-0.2342 -0.0384,-0.5549 -0.0384,-0.7177c0,-0.2749 -0.0048,-0.2902 -0.2401,-0.2902l0,-0.6872c0,-0.6771 0,-0.6872 -0.1056,-0.6872c-0.096,0 -0.1152,-0.0357 -0.1488,-0.2393c-0.0192,-0.1374 -0.0336,-0.4581 -0.0336,-0.7127c0,-0.4734 0,-0.4734 -0.1201,-0.4734c-0.1152,0 -0.12,-0.0152 -0.12,-0.2952c0,-0.1578 -0.0144,-0.4785 -0.0384,-0.7127c-0.0288,-0.3869 -0.0432,-0.4174 -0.1392,-0.4174c-0.1104,0 -0.1104,-0.0051 -0.1104,-1.4253l-0.1201,0c-0.12,0 -0.12,0 -0.144,-0.5855c-0.024,-0.5854 -0.024,-0.5854 -0.2641,-0.5854l0,-0.7126c0,-0.7076 0,-0.7127 -0.1104,-0.7127c-0.096,0 -0.1104,-0.0305 -0.144,-0.392c-0.0192,-0.2189 -0.0336,-0.5294 -0.0336,-0.6923c0,-0.2749 -0.0048,-0.2901 -0.2401,-0.2901l0,-0.5243c0,-0.2851 -0.0192,-0.6058 -0.0384,-0.7127c-0.0192,-0.1171 -0.0624,-0.1884 -0.1056,-0.1884c-0.048,0 -0.0816,-0.0763 -0.1104,-0.2392c-0.0192,-0.1375 -0.0336,-0.4582 -0.0336,-0.7127c0,-0.4734 0,-0.4734 -0.2401,-0.4734z" fill="#000000" id="svg_3"/>
  <path d="m17.668,39.7058l0,-8.9338l0,-8.9338l7.2495,0l-0.0096,0.9366c-0.0096,0.5142 -0.0336,0.9571 -0.0528,0.9825c-0.024,0.0204 -1.0994,0.0458 -4.7386,0.0662l-0.0096,2.5554c-0.0048,1.4101 -0.0048,2.6725 0,2.815c0.0096,0.1375 0.0288,0.2648 0.0384,0.28c0.0144,0.0153 0.845,0.0306 3.668,0.0509l0.0096,0.112c0.0096,0.0866 0.048,0.1222 0.2784,0.1426l0,1.6798l-0.12,0c-0.096,0 -0.1248,0.0255 -0.144,0.28l-3.7208,0.0254l0,2.5555c0,1.41 -0.0144,2.7488 -0.072,3.4004l4.801,0l0.0336,0.1884c0.0192,0.1069 0.0384,0.5548 0.0384,1.7969l-7.2495,0z" fill="#000000" id="svg_4"/>
  <path d="m9.53214,22.0927c0.09602,0 0.12002,-0.0254 0.12002,-0.1272l0,-0.1273l2.08844,0l0.0336,0.1883c0.0192,0.1069 0.0384,3.6805 0.0384,15.694l0.12,0c0.0961,0 0.1201,0.0255 0.1201,0.2545l3.4807,0.0255l0.0144,0.7127c0.0096,0.3919 0.0048,0.8348 -0.0384,1.2471l-5.85724,0l0,-0.1272c0,-0.1018 -0.024,-0.1273 -0.24005,-0.1273l0,-17.6131l0.12003,0z" fill="#000000" id="svg_5"/>
  <path d="m0,39.7058l0,-8.9338l0,-8.9338l7.0095,0l0,0.1273c0,0.0916 0.024,0.1272 0.09602,0.1272c0.09122,0 0.09602,0.0357 0.09602,1.4254l-0.12003,0c-0.10082,0 -0.12002,0.0254 -0.12002,0.3054l-4.56098,0l0.02401,5.6759l3.69679,0.0254l0.03841,0.3971c0.0192,0.2138 0.0336,0.6108 0.0336,0.8756c0,0.2647 -0.0144,0.5904 -0.07201,0.9671l-3.7208,0l0,5.9559l4.56098,0l0.0096,0.1375c0.0096,0.117 0.04321,0.1425 0.27846,0.1679l0,1.6799l-7.24955,0z" fill="#000000" id="svg_6"/>
  <path fill-rule="evenodd" clip-rule="evenodd" d="m39.393,21.8229c-0.2352,0.0153 -0.24,0.0204 -0.2736,0.2088c-0.0192,0.1018 -0.0384,0.3563 -0.0384,0.5599c0,0.3563 -0.0048,0.3665 -0.1201,0.3665l-0.12,0c0,1.0079 -0.0192,1.3846 -0.0384,1.4915c-0.0288,0.1528 -0.0528,0.1884 -0.1392,0.1884c-0.1104,0 -0.1104,0.0051 -0.1104,0.7381l0,0.7381c-0.2401,0 -0.2401,0.0051 -0.2401,0.4225c0,0.2291 -0.0144,0.5956 -0.0336,0.8145c-0.0336,0.3614 -0.048,0.392 -0.144,0.392c-0.1105,0 -0.1105,0.0051 -0.1105,0.7381c0,0.733 0,0.7381 -0.1104,0.7381c-0.096,0 -0.1104,0.0306 -0.1392,0.4174c-0.024,0.2342 -0.0384,0.6109 -0.0384,0.8451c0,0.4123 0,0.4174 -0.12,0.4174l-0.1201,0c0,1.4202 0,1.4253 -0.1104,1.4253c-0.0912,0 -0.1104,0.0357 -0.144,0.2393c-0.0192,0.1374 -0.0336,0.5141 -0.0336,0.845l0,0.5956l-0.2401,0c-0.024,1.405 -0.0288,1.4508 -0.12,1.466c-0.0672,0.0102 -0.1056,0.0662 -0.1296,0.2037c-0.0192,0.1018 -0.0384,0.4785 -0.0384,0.8399l0,0.6465l-0.2401,0l-0.048,1.6798c-0.2401,0 -0.2401,0.0051 -0.2401,0.4327l0,0.4327c0.2641,0 0.2881,0.0204 0.2881,0.1273l0,0.1273l1.8004,0c0.0528,-0.2953 0.072,-0.4786 0.072,-0.5956c0,-0.1986 0.0096,-0.2189 0.12,-0.2189l0.1201,0c0,-1.0079 0.0192,-1.3846 0.0384,-1.4915c0.0192,-0.1171 0.0624,-0.1884 0.1056,-0.1884c0.048,0 0.0816,-0.0763 0.1104,-0.2392c0.0192,-0.1375 0.0336,-0.448 0.0336,-0.7025l0,-0.4582c0.2785,-0.056 0.9746,-0.0763 1.7284,-0.0763c0.7537,0 1.4499,0.0203 1.5507,0.0407l0.1777,0.0356c0,0.7127 0.0144,1.0232 0.0336,1.1607c0.0288,0.1629 0.0624,0.2392 0.1104,0.2392c0.0432,0 0.0864,0.0713 0.1056,0.1884c0.0192,0.1069 0.0384,0.5446 0.0384,0.9722l0,0.7738c0.2209,0 0.2401,0.0255 0.2401,0.1527l0,0.1527l2.6885,0c0,-0.229 -0.024,-0.2545 -0.12,-0.2545c-0.12,0 -0.12,-0.0051 -0.12,-0.4429c0,-0.2494 -0.0144,-0.6363 -0.0384,-0.8704c-0.0288,-0.3869 -0.0432,-0.4175 -0.1392,-0.4175c-0.1105,0 -0.1105,-0.0051 -0.1105,-0.8399c0,-0.8348 0,-0.8399 -0.1056,-0.8399c-0.096,0 -0.1152,-0.0357 -0.1488,-0.2393c-0.0192,-0.1374 -0.0336,-0.4683 -0.0336,-0.7381c0,-0.3597 0,-0.46 -0.045,-0.488c-0.0174,-0.0109 -0.0416,-0.0109 -0.0751,-0.0109l-0.12,0c0,-1.6747 0,-1.6798 -0.1056,-1.6798c-0.0912,0 -0.1152,-0.0357 -0.144,-0.1884c-0.0192,-0.1069 -0.0384,-0.4836 -0.0384,-0.8399l0,-0.6516c-0.2401,0 -0.2401,-0.0051 -0.2401,-0.4683c0,-0.2596 -0.0192,-0.5956 -0.0384,-0.7432c-0.024,-0.1884 -0.0528,-0.2647 -0.1056,-0.2647c-0.0432,0 -0.0864,-0.0662 -0.1104,-0.1629c-0.0193,-0.0917 -0.0337,-0.4734 -0.0337,-0.84l0,-0.677l-0.24,0l-0.048,-1.6798l-0.2401,0c0,-1.4203 0,-1.4254 -0.1056,-1.4254c-0.1008,0 -0.1152,-0.0305 -0.144,-0.4174c-0.024,-0.2342 -0.0384,-0.6109 -0.0384,-0.8399c0,-0.4175 0,-0.4225 -0.1201,-0.4225l-0.12,0l0,-1.1709c-0.2112,0 -0.24,-0.0254 -0.24,-0.1119c0,-0.1019 -0.0336,-0.1222 -0.2497,-0.1528c-0.1392,-0.0203 -0.7537,-0.0356 -1.3587,-0.0305c-0.6049,0.0051 -1.2098,0.0153 -1.3443,0.0254zm1.3222,2.754c0,0.1018 -0.0144,0.2952 -0.0336,0.4327c-0.0288,0.1629 -0.0624,0.2392 -0.1104,0.2392c-0.0432,0 -0.0865,0.0713 -0.1057,0.1884c-0.0192,0.1069 -0.0384,0.4836 -0.0384,0.8399l0,0.6516c-0.24,0 -0.24,0.0051 -0.24,0.4428c0,0.2495 -0.0144,0.6364 -0.0384,0.8705c-0.0288,0.3869 -0.0432,0.4174 -0.1441,0.4174c-0.1056,0 -0.1056,0.0051 -0.1056,0.84l0,0.8399l-0.24,0l-0.048,1.7308l-0.2401,0l0,1.6798c-0.216,0 -0.24,0.0255 -0.24,0.1273c0,0.0916 0.024,0.1272 0.096,0.1272c0.0768,0 0.096,0.0357 0.096,0.1528l0,0.1527l2.7366,0c0,-0.6516 -0.0144,-1.0283 -0.0384,-1.2574c-0.0288,-0.3665 -0.048,-0.4225 -0.1297,-0.4327c-0.0912,-0.0152 -0.096,-0.061 -0.1056,-0.9977l-0.0144,-0.9774c-0.2352,0 -0.24,-0.0102 -0.24,-0.3716c0,-0.1985 -0.0144,-0.6566 -0.0384,-1.0181c-0.0336,-0.6261 -0.0384,-0.6465 -0.1393,-0.6465l-0.1104,0c0,-1.4406 -0.0192,-1.9445 -0.0384,-2.0514c-0.0192,-0.1171 -0.0624,-0.1884 -0.1056,-0.1884c-0.0576,0 -0.0816,-0.0967 -0.1056,-0.4174c-0.024,-0.2342 -0.0385,-0.6821 -0.0385,-0.9977l0,-0.5702c-0.2256,0 -0.24,0.0204 -0.24,0.1884l0,0.0051z" fill="#000000" id="svg_7"/>
  <path fill-rule="evenodd" clip-rule="evenodd" d="m58.8939,21.7383c-0.0294,0.0509 -0.1382,0.0559 -0.5412,0.0745c-0.4031,0.0185 -0.5119,0.0236 -0.5413,0.0744c-0.0109,0.0188 -0.0109,0.0439 -0.0109,0.0783c0,0.1221 -0.0144,0.1272 -0.264,0.1272c-0.2497,0 -0.2641,0.0051 -0.2641,0.1273c0,0.1171 -0.024,0.1273 -0.24,0.1527c-0.2209,0.0255 -0.2401,0.0356 -0.2545,0.168c-0.0096,0.1069 -0.0336,0.1425 -0.144,0.1527c-0.1056,0.0051 -0.1296,0.0356 -0.1296,0.1375c0,0.1018 -0.024,0.1272 -0.1201,0.1272c-0.1104,0 -0.12,0.0204 -0.144,0.28c-0.024,0.2596 -0.0336,0.28 -0.144,0.28c-0.1105,0 -0.1201,0.0203 -0.1441,0.2799c-0.024,0.2597 -0.0336,0.28 -0.144,0.28c-0.12,0 -0.12,0.0051 -0.12,0.4327c0,0.4276 0,0.4327 -0.12,0.4327c-0.0306,0 -0.0534,0 -0.0708,0.0097c-0.0508,0.0284 -0.0554,0.1396 -0.0733,0.5757c-0.0179,0.4362 -0.0224,0.5474 -0.0732,0.5757c-0.0174,0.0097 -0.0402,0.0097 -0.0708,0.0097l-0.12,0c0,1.8326 -0.0144,2.474 -0.0336,2.6114c-0.0288,0.1833 -0.0576,0.2393 -0.1201,0.2393c-0.0816,0 -0.0864,0.1222 -0.0864,1.8071c0,1.685 0.0048,1.8071 0.0864,1.8071c0.0625,0 0.0913,0.056 0.1201,0.2393c0.0192,0.1374 0.0336,0.789 0.0336,1.4559l0,1.2064c0.2304,0 0.24,0.0153 0.24,0.2698c0,0.1425 0.0144,0.4531 0.0384,0.6872c0.0288,0.3869 0.0432,0.4174 0.1441,0.4174c0.1008,0 0.1056,0.0153 0.1056,0.4327c0,0.4276 0,0.4327 0.12,0.4327c0.1104,0 0.12,0.0204 0.144,0.28c0.024,0.2596 0.0336,0.28 0.1441,0.28c0.1008,0 0.12,0.0254 0.12,0.1527c0,0.1273 0.0192,0.1527 0.12,0.1527c0.096,0 0.1201,0.0255 0.1345,0.1425c0.0096,0.112 0.0336,0.1375 0.144,0.1528c0.1056,0.0101 0.1296,0.0356 0.1296,0.1374c0,0.1069 0.024,0.1273 0.144,0.1273c0.1201,0 0.1441,0.0203 0.1441,0.1272c0,0.1018 0.024,0.1273 0.1344,0.1426c0.1056,0.0101 0.1296,0.0356 0.144,0.1527l0.0096,0.1374c0.7634,0 0.7682,0 0.7682,0.1273l0,0.1272c1.2483,0.0459 1.9684,0.0459 2.4149,0.0306l0.8018,-0.0306c0,-0.2545 0.0048,-0.2545 0.4081,-0.2545c0.4033,0 0.4081,0 0.4081,-0.1272c0,-0.1171 0.0192,-0.1273 0.264,-0.1528c0.2449,-0.0254 0.2641,-0.0356 0.2641,-0.1527c0,-0.1018 0.024,-0.1272 0.12,-0.1272c0.096,0 0.12,-0.0255 0.1344,-0.1375c0.0096,-0.1171 0.0336,-0.1425 0.1441,-0.1527c0.12,-0.0153 0.1296,-0.0305 0.144,-0.28c0.0096,-0.2545 0.0192,-0.2698 0.144,-0.28c0.1104,-0.0152 0.1296,-0.0407 0.1296,-0.1679c0,-0.1273 0.0193,-0.1528 0.1201,-0.1528c0.1104,0 0.12,-0.0203 0.12,-0.2138c0,-0.1221 0.0192,-0.3054 0.0384,-0.4072c0.024,-0.1374 0.0624,-0.1934 0.1296,-0.2036c0.0865,-0.0153 0.0961,-0.0611 0.1105,-0.56c0.0096,-0.5345 0.0144,-0.5497 0.12,-0.5497c0.1008,0 0.1056,-0.0204 0.144,-0.6974c0.0192,-0.3869 0.0336,-0.901 0.0336,-1.1454c0,-0.4429 0,-0.448 0.12,-0.448l0.1201,0l0,-5.7013c-0.2401,0 -0.2401,-0.0051 -0.2401,-0.4683c0,-0.2596 -0.0144,-0.7636 -0.0384,-1.125c-0.0336,-0.6262 -0.0384,-0.6465 -0.1392,-0.6465c-0.1056,0 -0.1104,-0.0153 -0.12,-0.5701c-0.0144,-0.5295 -0.024,-0.5753 -0.1105,-0.5905c-0.0672,-0.0102 -0.1056,-0.0662 -0.1296,-0.2037c-0.0192,-0.1018 -0.0384,-0.285 -0.0384,-0.4021c0,-0.1985 -0.0096,-0.2189 -0.12,-0.2189c-0.1008,0 -0.1201,-0.0255 -0.1201,-0.1527c0,-0.1273 -0.0192,-0.1527 -0.12,-0.1527c-0.1104,0 -0.12,-0.0204 -0.144,-0.28c-0.024,-0.2596 -0.0336,-0.28 -0.144,-0.28c-0.0961,0 -0.1201,-0.0305 -0.1297,-0.1374c-0.0144,-0.112 -0.0384,-0.1477 -0.144,-0.1527c-0.1104,-0.0102 -0.1344,-0.0408 -0.1344,-0.1426c0,-0.1069 -0.024,-0.1272 -0.1441,-0.1272c-0.12,0 -0.144,-0.0204 -0.144,-0.1273c0,-0.1171 -0.0192,-0.1273 -0.264,-0.1527c-0.2449,-0.0255 -0.2641,-0.0357 -0.2641,-0.1527c0,-0.1171 -0.0144,-0.1273 -0.2497,-0.1273c-0.1392,0 -0.432,-0.0153 -0.6481,-0.0407c-0.3457,-0.0306 -0.3985,-0.0509 -0.4081,-0.1375c-0.0144,-0.0967 -0.0576,-0.1018 -0.8162,-0.117l-0.8065,-0.0102l0,0.1272c0,0.0344 0,0.0595 -0.0109,0.0783zm0.565,1.8154c-0.024,0.0152 -0.0384,0.0662 -0.0288,0.112c0.0048,0.056 -0.048,0.0916 -0.1728,0.117c-0.1009,0.0204 -0.2737,0.0408 -0.3889,0.0408c-0.1825,0 -0.2017,0.0102 -0.2017,0.1272c0,0.1069 -0.024,0.1273 -0.144,0.1273c-0.1296,0 -0.144,0.0153 -0.144,0.1527c0,0.1222 -0.0192,0.1527 -0.1104,0.1527c-0.0865,0 -0.1105,0.0357 -0.1393,0.1884c-0.0192,0.1069 -0.0384,0.2901 -0.0384,0.4123c0,0.1934 -0.0096,0.2138 -0.12,0.2138c-0.0306,0 -0.0534,0 -0.0708,0.0097c-0.0508,0.0284 -0.0554,0.1396 -0.0732,0.5757c-0.0192,0.5141 -0.0337,0.5854 -0.1105,0.5854c-0.0576,0 -0.0912,0.056 -0.1152,0.1884c-0.0192,0.1069 -0.0384,2.0871 -0.0384,4.4083l0,4.2099c0.2064,0 0.2208,0.0305 0.2497,0.4174c0.024,0.2341 0.0384,0.5447 0.0384,0.6923c0,0.2494 0.0096,0.2647 0.12,0.2647c0.1152,0 0.12,0.0153 0.12,0.3054l0,0.3054c0.2881,0 0.2881,0.0051 0.2881,0.28l0,0.28c0.5041,0 0.5281,0.0102 0.5281,0.1171c0,0.0916 0.0336,0.1171 0.1776,0.1476c0.1008,0.0204 0.3457,0.0407 0.5425,0.0407c0.1969,0 0.5378,-0.0152 0.7586,-0.0407c0.3649,-0.0305 0.3937,-0.0458 0.3937,-0.1476c0,-0.0967 0.0288,-0.1171 0.144,-0.1171c0.1296,0 0.144,-0.0153 0.144,-0.1527c0,-0.1273 0.0193,-0.1527 0.1201,-0.1527c0.1152,0 0.12,-0.0153 0.12,-0.28c0,-0.2545 0.0096,-0.28 0.1056,-0.28c0.0912,0 0.1152,-0.0356 0.1441,-0.1883c0.0192,-0.1069 0.0384,-0.3615 0.0384,-0.56c0,-0.3512 0.0048,-0.3716 0.1056,-0.3716l0.1104,0c0.0576,-2.6623 0.072,-3.7517 0.072,-4.1335c0,-0.6668 0.0048,-0.7025 0.096,-0.7025c0.0865,0 0.0961,-0.0356 0.0961,-0.2799c0,-0.2342 -0.0144,-0.28 -0.0865,-0.28c-0.0768,0 -0.0864,-0.1222 -0.12,-1.5373c-0.0192,-0.8501 -0.0336,-1.8682 -0.0336,-2.2653l0,-0.7279c-0.24,0 -0.24,-0.0051 -0.24,-0.4327c0,-0.4276 0,-0.4327 -0.1201,-0.4327c-0.1104,0 -0.12,-0.0204 -0.144,-0.28c-0.024,-0.2596 -0.0336,-0.28 -0.144,-0.28c-0.1008,0 -0.1201,-0.0254 -0.1201,-0.1527c0,-0.1374 -0.0144,-0.1527 -0.144,-0.1527c-0.12,0 -0.144,-0.0204 -0.144,-0.1273c0,-0.117 -0.0144,-0.1272 -0.2785,-0.1374c-0.2304,-0.0153 -0.2736,-0.0306 -0.288,-0.1171c-0.0096,-0.0713 -0.0624,-0.112 -0.1921,-0.1374c-0.096,-0.0204 -0.2544,-0.0408 -0.3504,-0.0408c-0.0961,0 -0.1873,0.0153 -0.2113,0.0357z" fill="#000000" id="svg_8"/>
  <path d="m0,13.897l0.13443,-0.0203l-0.0048,0c0.07681,-0.0051 0.37928,-0.0204 1.21466,-0.0306l0,1.3999l0.22565,0.0407c0.12962,0.0204 2.47252,0.0357 10.19256,0.0357l0,0.1272c0,0.1069 0.024,0.1273 0.2881,0.1273l0,1.349l-0.1777,0.0356c-0.1008,0.0204 -2.44368,0.0407 -10.24055,0.0407l0,0.1273c0,0.1069 -0.02401,0.1273 -0.28806,0.1273l0,1.4762l-0.4417,0c-0.24485,0 -0.54731,-0.0153 -0.90259,-0.0764l0,-4.7596z" fill="#000000" id="svg_9"/>
  <path style="vector-effect: non-scaling-stroke;" stroke="null" d="m-0.87997,7.02485c0.09602,0 0.12002,-0.02545 0.12002,-0.12726l0,-0.12727l11.57045,0l0,0.15272c0,0.12726 0.0192,0.15271 0.2401,0.15271l0,1.11991l-0.12,0c-0.1009,0 -0.1201,0.02545 -0.1201,0.30543l-5.37712,0l0,2.49431l2.41011,0c1.32991,0 2.59251,0.0153 3.20711,0.0764l0,1.3999l-0.1441,0c-0.12,0 -0.144,0.0203 -0.144,0.2545l-11.47444,0l0,-0.1273c0,-0.1069 -0.024,-0.1272 -0.28806,-0.1272l0,-1.3999l0.22565,-0.0407c0.12963,-0.0204 1.27227,-0.0357 4.86344,-0.0357l0,-2.49431l-2.49173,-0.01018c-1.3731,-0.01018 -2.51094,-0.03563 -2.53495,-0.056c-0.0192,-0.02545 -0.04321,-0.35124 -0.06241,-1.41006l0.12003,0z" fill="#000000" id="svg_10"/>
  <path fill-rule="evenodd" clip-rule="evenodd" d="m60.7351,0.30029c-0.0432,0.03054 -0.0576,0.07636 -0.0384,0.12726c0.0288,0.06109 0.0144,0.08145 -0.0576,0.08145c-0.0721,0 -0.1009,0.04582 -0.1249,0.16799c-0.0144,0.08654 -0.024,0.35124 -0.024,0.5854c0.0048,0.41233 0.0048,0.41742 -0.1152,0.41742c-0.1104,0 -0.12,0.01527 -0.12,0.2698c0,0.14253 0.024,0.29016 0.048,0.31561c0.0336,0.03054 0.0432,0.14762 0.0288,0.27998c-0.0096,0.12726 -0.0528,0.36142 -0.0864,0.52432c-0.048,0.21889 -0.0816,0.29015 -0.1441,0.29015c-0.0576,0 -0.096,0.05091 -0.1152,0.16799c-0.0144,0.08654 -0.0288,0.21889 -0.0336,0.29016c0,0.07126 0.0048,0.19344 0.0096,0.27997c0.0096,0.08654 0.0144,0.27489 0.0096,0.42251c-0.0048,0.21381 -0.0192,0.26471 -0.0912,0.26471c-0.0672,0 -0.0768,0.04072 -0.0624,0.26471c0.0096,0.14762 -0.024,0.52941 -0.072,0.84502c-0.0768,0.47341 -0.1057,0.57013 -0.1777,0.57013c-0.0432,0 -0.0912,0.01527 -0.1008,0.03563c-0.0096,0.02546 -0.0288,0.14763 -0.048,0.27998c-0.024,0.19344 -0.0096,0.25962 0.0576,0.32579c0.0672,0.06618 0.072,0.09672 0.024,0.20362c-0.0336,0.06618 -0.0624,0.22398 -0.0624,0.35124c0,0.20871 -0.0096,0.22908 -0.12,0.22908l-0.12,0c0.0048,0.88574 -0.0048,1.22171 -0.0192,1.31334c-0.0241,0.13236 -0.0529,0.1629 -0.1489,0.1629c-0.1104,0 -0.12,0.02036 -0.12,0.22907c0,0.12726 -0.024,0.27489 -0.048,0.33088c-0.0384,0.0764 -0.024,0.1374 0.048,0.2545c0.072,0.1171 0.0864,0.1782 0.048,0.2546c-0.024,0.0559 -0.048,0.2036 -0.048,0.3308c0,0.2037 -0.0096,0.2291 -0.1056,0.2291c-0.1009,0 -0.1105,0.0305 -0.1441,0.392c-0.0192,0.2647 -0.0096,0.4378 0.024,0.509c0.0433,0.0916 0.0433,0.1476 0,0.2444c-0.0336,0.0712 -0.0624,0.173 -0.0624,0.229c0,0.0611 -0.0336,0.1018 -0.0816,0.1018c-0.072,0 -0.0816,0.0357 -0.072,0.1935c0.0096,0.1018 -0.0096,0.2341 -0.0384,0.2901c-0.0336,0.056 -0.048,0.1833 -0.0336,0.28c0.0144,0.0967 0,0.3462 -0.0288,0.5498c-0.048,0.2952 -0.072,0.3665 -0.1393,0.3665c-0.0672,0 -0.0912,0.056 -0.1152,0.2647c-0.0192,0.1476 -0.0144,0.3513 0,0.448c0.0192,0.0967 0.0336,0.224 0.0336,0.28c0,0.0559 -0.0096,0.1781 -0.024,0.2647c-0.0192,0.1018 -0.0576,0.1679 -0.1008,0.1679c-0.0432,0 -0.072,0.0459 -0.072,0.112c0,0.0662 -0.0144,0.1375 -0.0384,0.168c-0.024,0.0306 -0.072,0.1476 -0.1104,0.2596c-0.0625,0.1935 -0.0577,0.2189 0.0192,0.3055c0.0624,0.0661 0.0816,0.1323 0.0576,0.1985c-0.0192,0.056 -0.0432,0.1629 -0.0528,0.2392c-0.0144,0.0968 -0.048,0.1426 -0.1009,0.1426c-0.0624,0 -0.096,0.056 -0.12,0.1883c-0.0192,0.1069 -0.0384,0.4174 -0.0384,0.6872l0,0.4989c0.3889,0.0458 0.8738,0.0509 1.3203,0.0407l0.8162,-0.0152c0.024,-0.8043 0.0336,-0.84 0.12,-0.84c0.064,0 0.088,-0.0254 0.072,-0.0763c-0.0144,-0.0407 0,-0.1069 0.024,-0.1426c0.0288,-0.0305 0.0528,-0.1781 0.0528,-0.3156c0,-0.132 0.0124,-0.36 0.0218,-0.5345c0.0008,-0.014 0.0015,-0.0275 0.0022,-0.0407c0.0192,-0.2952 0.024,-0.3156 0.1393,-0.3156l0.12,0c-0.014,-0.2888 -0.0247,-0.4996 -0.0324,-0.6513c-0.0107,-0.2121 -0.0156,-0.3087 -0.0156,-0.3413c-0.0048,-0.056 0.0048,-0.1782 0.0192,-0.2698c0.0192,-0.0968 0.0576,-0.1629 0.1008,-0.1629c0.0384,0 0.0768,-0.0509 0.0864,-0.1171c0.0096,-0.0916 0.048,-0.1171 0.2257,-0.1476c0.12,-0.0153 0.7585,-0.0357 1.4163,-0.0357c0.6625,-0.0051 1.3154,0.0153 1.4547,0.0357c0.216,0.0305 0.2496,0.0509 0.2496,0.1476c0,0.0814 0.0336,0.1222 0.1057,0.1272c0.1008,0.0153 0.1152,0.0509 0.1392,0.3462c0.0144,0.1833 0.0432,0.4276 0.0576,0.5447c0.0192,0.1323 0.0144,0.229 -0.0144,0.2443c-0.024,0.0153 -0.048,0.2087 -0.048,0.4327c0,0.4022 0,0.4072 0.12,0.4072c0.1104,0 0.12,0.0204 0.12,0.2139c0,0.1221 0.0288,0.2952 0.0624,0.3868c0.0481,0.1426 0.0481,0.1731 -0.0144,0.2138c-0.0384,0.0255 -0.048,0.0509 -0.024,0.0509c0.024,0 0.0144,0.0204 -0.024,0.0458c-0.0624,0.0408 -0.0624,0.0713 0,0.28c0.048,0.1629 0.1009,0.2342 0.1537,0.2342c0.0576,0 0.0768,0.0254 0.0624,0.0763c-0.0144,0.0408 0,0.0866 0.024,0.1019c0.024,0.0152 0.0384,0.0458 0.024,0.0763c-0.0144,0.0306 -0.0096,0.0509 0.0096,0.0509c0.0039,0 0.0212,0.0001 0.0504,0.0004c0.1515,0.0011 0.6207,0.0047 1.1643,0.0047l1.1762,0.0051c0.0192,-1.1555 0.0048,-1.4864 -0.024,-1.5271c-0.0288,-0.0306 -0.0384,-0.0968 -0.024,-0.1375c0.016,-0.0509 -0.008,-0.0764 -0.072,-0.0764c-0.0816,0 -0.096,-0.0356 -0.096,-0.229c0,-0.1273 -0.024,-0.28 -0.0529,-0.3462c-0.0384,-0.0763 -0.0384,-0.1425 -0.0048,-0.2138c0.0288,-0.0611 0.0385,-0.2545 0.0192,-0.4988c-0.0288,-0.3615 -0.0432,-0.392 -0.144,-0.392c-0.096,0 -0.1056,-0.0255 -0.1056,-0.2545c0,-0.1426 -0.024,-0.3004 -0.048,-0.3564c-0.0288,-0.0611 -0.0288,-0.1272 -0.0048,-0.168c0.024,-0.0305 0.048,-0.1323 0.0576,-0.2138c0.0048,-0.0814 0.0048,-0.2137 0.0048,-0.2952l0,0c-0.0096,-0.112 -0.0336,-0.1374 -0.1296,-0.1374c-0.1105,0 -0.1201,-0.0204 -0.1441,-0.2953c-0.0144,-0.1578 -0.024,-0.5345 -0.024,-0.8399l0,-0.5447c-0.2304,0 -0.24,-0.0204 -0.24,-0.2291c0,-0.1272 -0.024,-0.28 -0.0528,-0.3461c-0.048,-0.0917 -0.0384,-0.1426 0.048,-0.28c0.0768,-0.1222 0.0912,-0.1884 0.0528,-0.2647c-0.024,-0.056 -0.048,-0.1578 -0.048,-0.2291c0,-0.1018 -0.024,-0.1272 -0.12,-0.1272c-0.1105,0 -0.1201,-0.0255 -0.1441,-0.2698c-0.0144,-0.1426 -0.024,-0.4531 -0.024,-0.68726c0,-0.22907 -0.024,-0.4276 -0.048,-0.44287c-0.024,-0.01527 -0.048,-0.08145 -0.048,-0.15272c0,-0.08145 -0.0288,-0.12726 -0.072,-0.12726c-0.0528,0 -0.072,-0.06109 -0.072,-0.22907c0,-0.12726 -0.0288,-0.28507 -0.0624,-0.35125c-0.0481,-0.1069 -0.0433,-0.13744 0.0336,-0.21889c0.0624,-0.06617 0.0768,-0.12726 0.0528,-0.21889c-0.0017,-0.00842 -0.0036,-0.01749 -0.0055,-0.02706c-0.0145,-0.07139 -0.0346,-0.17091 -0.0473,-0.24273c-0.0096,-0.08654 -0.048,-0.13745 -0.1057,-0.13745c-0.0672,0 -0.096,-0.09672 -0.168,-0.57013c-0.0528,-0.31561 -0.0816,-0.6974 -0.072,-0.84502c0.0096,-0.22398 0,-0.26471 -0.072,-0.26471c-0.0672,0 -0.0816,-0.04581 -0.0816,-0.22907c0,-0.12726 -0.024,-0.27998 -0.0529,-0.34615c-0.0432,-0.09163 -0.0384,-0.14254 0.0337,-0.25453c0.0768,-0.12217 0.0816,-0.16289 0.0288,-0.26979c-0.0288,-0.06618 -0.0577,-0.16799 -0.0577,-0.22398c0,-0.06109 -0.0336,-0.10181 -0.0864,-0.10181c-0.0624,0 -0.096,-0.07127 -0.144,-0.31561c-0.0336,-0.17817 -0.072,-0.41233 -0.0864,-0.52432c-0.0144,-0.11709 -0.0048,-0.22399 0.024,-0.25453c0.0288,-0.02545 0.0528,-0.17307 0.0528,-0.3207c0,-0.24943 -0.0096,-0.2647 -0.12,-0.2647c-0.1105,0 -0.1201,-0.02037 -0.1393,-0.2698c-0.0096,-0.14253 -0.0336,-0.3207 -0.0528,-0.39197c-0.024,-0.09163 -0.0096,-0.15271 0.0528,-0.21889c0.0865,-0.09163 0.0865,-0.1069 0.0144,-0.33088c-0.0576,-0.17308 -0.1056,-0.24434 -0.1824,-0.25452c-0.0912,-0.01019 -0.1008,-0.04073 -0.1008,-0.38179l0,-0.36652c-2.1413,-0.02036 -2.8566,-0.04072 -2.9767,-0.05599c-0.12,-0.01527 -0.2496,-0.00509 -0.288,0.02545zm1.4063,2.97289c0.0096,0.11708 0.0048,0.38179 -0.0192,0.58541c-0.0384,0.31561 -0.0576,0.36651 -0.1392,0.36651c-0.072,0 -0.1056,0.04582 -0.1248,0.16799c-0.0144,0.08653 -0.024,0.2647 -0.024,0.39196c0,0.12727 -0.0192,0.25453 -0.0432,0.27998c-0.0289,0.03054 -0.0433,0.22907 -0.0385,0.44796c0.0144,0.34616 0.0048,0.39197 -0.0672,0.39197c-0.0672,0 -0.0864,0.04582 -0.0864,0.21889c0,0.11708 -0.0288,0.28507 -0.0624,0.37161c-0.048,0.14253 -0.048,0.17307 0.0336,0.25452c0.0624,0.07127 0.0768,0.13235 0.0528,0.22398c-0.0192,0.07127 -0.0432,0.23417 -0.0528,0.37161c-0.0144,0.19853 -0.0336,0.23925 -0.1248,0.25452c-0.0912,0.01018 -0.1104,0.06109 -0.1681,0.41742c-0.0432,0.27489 -0.048,0.42251 -0.0144,0.45815c0.0288,0.03054 0.0481,0.22907 0.0481,0.44796c0,0.38179 0,0.39197 -0.1201,0.39197c-0.1104,0 -0.12,0.02036 -0.12,0.21889c0,0.11708 -0.0288,0.28506 -0.0624,0.3716c-0.048,0.14252 -0.048,0.17312 0.0288,0.25452c0.0608,0.0645 0.08,0.1307 0.0576,0.1985c-0.0192,0.056 -0.0432,0.1782 -0.0528,0.2698c-0.0144,0.1324 -0.0384,0.1629 -0.1392,0.1629c-0.1105,0 -0.1201,0.0204 -0.1441,0.2953c-0.0144,0.1578 -0.024,0.3359 -0.0192,0.3919c0,0.056 0.0096,0.3513 0.024,0.6618l0.024,0.56c0.2737,0.056 0.8306,0.0763 1.4115,0.0763c0.581,0 1.1571,-0.0153 1.2867,-0.0356l0.2257,-0.0407c0,-0.4887 -0.0144,-0.5345 -0.0817,-0.5345c-0.0768,0 -0.0864,-0.0459 -0.072,-0.3666c0.0096,-0.2239 -0.0048,-0.4123 -0.0384,-0.4734c-0.0336,-0.056 -0.048,-0.168 -0.0336,-0.2545c0.0144,-0.0865 0,-0.3207 -0.0288,-0.5243c-0.048,-0.2953 -0.0768,-0.3665 -0.1392,-0.3665c-0.072,0 -0.096,-0.0713 -0.1344,-0.38182c-0.0241,-0.20871 -0.0481,-0.44796 -0.0481,-0.5345c0,-0.08654 0.0385,-0.18835 0.0865,-0.23416c0.072,-0.07127 0.072,-0.1069 0.024,-0.24434c-0.0336,-0.08654 -0.0624,-0.25453 -0.0624,-0.37161c0,-0.16289 -0.0193,-0.21889 -0.0721,-0.21889c-0.0528,0 -0.072,-0.06109 -0.072,-0.25452c0,-0.13745 -0.024,-0.2698 -0.0528,-0.29016c-0.0384,-0.02545 -0.0528,-0.17308 -0.0384,-0.42251c0.0096,-0.20871 0,-0.52432 -0.0192,-0.6974c-0.0288,-0.30034 -0.0432,-0.3207 -0.1536,-0.3207c-0.1105,0 -0.1201,-0.02036 -0.1393,-0.29016c-0.0144,-0.16289 -0.0384,-0.37669 -0.0576,-0.47341c-0.024,-0.14254 -0.0096,-0.2138 0.0768,-0.35634c0.0913,-0.14762 0.1009,-0.19853 0.0529,-0.29015c-0.0289,-0.06618 -0.0529,-0.2189 -0.0529,-0.34616c0,-0.20871 -0.0096,-0.22907 -0.12,-0.22907c-0.1152,0 -0.12,-0.01527 -0.12,-0.31561c0,-0.16256 -0.008,-0.39716 -0.0131,-0.54528c-0.0004,-0.01422 -0.0009,-0.02764 -0.0013,-0.04013c-0.0144,-0.25452 -0.024,-0.26979 -0.1488,-0.26979c-0.1297,0 -0.1345,0.00509 -0.1105,0.21889z" fill="#000000" id="svg_11"/>
  <path d="m44.166,9.42757c0,-4.77996 0.0144,-8.79636 0.0288,-8.92871l0,-0.00509c0.0288,-0.20871 0.0432,-0.23925 0.1441,-0.23925c0.0624,0 0.1296,0.02036 0.1488,0.0509c0.0192,0.03054 0.4177,0.05091 1.0226,0.05091c0.7298,0 1.0034,-0.01528 1.0466,-0.06618c0.048,-0.04581 0.0576,-0.03054 0.0576,0.07636c0,0.11708 0.0192,0.14253 0.2401,0.14253l0,17.61306l-0.12,0c-0.0961,0 -0.1153,0.0204 -0.0961,0.1018c0.0144,0.0611 -0.0096,0.1375 -0.0624,0.1833c-0.048,0.0458 -0.12,0.0662 -0.1776,0.0509c-0.0528,-0.0153 -0.5137,-0.0305 -1.9444,-0.0305l-0.0144,-0.1426c-0.0096,-0.112 -0.0336,-0.1425 -0.2737,-0.1629l0,-8.69453z" fill="#000000" id="svg_12"/>
  <path fill-rule="evenodd" clip-rule="evenodd" d="m14.7281,9.34104c-0.0096,6.03226 0,9.08656 0.0336,9.08656c0.0175,0.003 0.4658,0.0024 1.1381,0.0014c0.434,-0.0007 0.9614,-0.0014 1.5265,-0.0014c1.4403,0 2.8038,-0.0153 3.0391,-0.0408c0.3936,-0.0356 0.4177,-0.0407 0.4177,-0.1527c0,-0.1018 0.0192,-0.112 0.2736,-0.1069c0.1536,0.0051 0.3361,0.0051 0.4081,0c0.1104,-0.0051 0.1344,-0.0305 0.1344,-0.1323c0,-0.1171 0.0192,-0.1273 0.2641,-0.1528c0.2256,-0.0203 0.264,-0.0407 0.264,-0.1272c0,-0.0679 0.024,-0.0933 0.0721,-0.0764c0.0384,0.0153 0.1056,-0.0051 0.144,-0.0356c0.0432,-0.0356 0.0768,-0.1273 0.072,-0.2036c0,-0.0815 0.0288,-0.1578 0.0624,-0.1782c0.0384,-0.0254 0.0816,-0.0814 0.096,-0.1273c0.024,-0.061 0.0865,-0.0916 0.1777,-0.0916c0.1392,0 0.144,-0.0102 0.168,-0.28c0.0192,-0.2239 0.0432,-0.2799 0.1056,-0.2799c0.0624,0 0.0816,-0.0357 0.0672,-0.1171c-0.0096,-0.0611 0.0096,-0.1273 0.0385,-0.1527c0.0288,-0.0204 0.0528,-0.0917 0.0528,-0.1629c0,-0.1018 0.0288,-0.1324 0.1296,-0.1426c0.12,-0.0101 0.1344,-0.0305 0.12,-0.1629c-0.0014,-0.0247 -0.0033,-0.0528 -0.0053,-0.0814c-0.0044,-0.0655 -0.0091,-0.1341 -0.0091,-0.1731c0,-0.056 0.0096,-0.1781 0.024,-0.2698c0.024,-0.1323 0.0528,-0.1629 0.1489,-0.1629l0.12,0c-0.0048,-0.8501 0.0096,-1.1708 0.024,-1.2624c0.0192,-0.1324 0.048,-0.1629 0.144,-0.1629c0.1104,0 0.12,-0.0204 0.144,-0.3156c0.0021,-0.0256 0.0044,-0.0535 0.0068,-0.0829c0.0143,-0.175 0.033,-0.4052 0.0413,-0.5534c0.0192,-0.2698 0.0048,-0.3462 -0.0769,-0.4836c-0.0864,-0.1375 -0.1008,-0.2036 -0.0672,-0.3716c0.0192,-0.112 0.0432,-1.1861 0.0576,-2.39256c0.0096,-1.41006 0,-2.23981 -0.0336,-2.33144c-0.0384,-0.11199 -0.0288,-0.16799 0.048,-0.29016c0.0769,-0.12726 0.0913,-0.20871 0.0721,-0.47342c-0.0096,-0.17307 -0.0337,-0.44796 -0.0481,-0.61085c-0.024,-0.2698 -0.0336,-0.29016 -0.144,-0.29016c-0.096,0 -0.1248,-0.03054 -0.1488,-0.16799c-0.0144,-0.08654 -0.024,-0.34615 -0.0192,-0.57013c0,-0.23926 -0.024,-0.46324 -0.0576,-0.54977c-0.0336,-0.07636 -0.0913,-0.13745 -0.1249,-0.13745c-0.0384,0 -0.0576,-0.09672 -0.0576,-0.30543c0,-0.28506 -0.0096,-0.30543 -0.1104,-0.30543c-0.0816,0 -0.1152,-0.04072 -0.1632,-0.2138c-0.0336,-0.12217 -0.0672,-0.29524 -0.0816,-0.38687c-0.0193,-0.08654 -0.0481,-0.1629 -0.0769,-0.1629c-0.0288,0 -0.0816,-0.04072 -0.1248,-0.09163c-0.048,-0.0509 -0.0672,-0.13235 -0.048,-0.20362c0.024,-0.08654 0.0096,-0.11199 -0.0672,-0.11199c-0.0624,0 -0.096,-0.03563 -0.096,-0.09163c0.0048,-0.04581 -0.0288,-0.12217 -0.0721,-0.16289c-0.0432,-0.04073 -0.0768,-0.1069 -0.072,-0.14254c0,-0.03054 -0.0432,-0.07126 -0.096,-0.08653c-0.0528,-0.01528 -0.1056,-0.07127 -0.12,-0.12727c-0.0144,-0.05599 -0.0576,-0.10181 -0.096,-0.10181c-0.0384,0 -0.1057,-0.04072 -0.1489,-0.09163c-0.0432,-0.04581 -0.0624,-0.12726 -0.048,-0.17816c0.0192,-0.06109 0,-0.09163 -0.0816,-0.10181c-0.0768,-0.00509 -0.1104,-0.04582 -0.12,-0.15272c-0.0096,-0.13235 -0.0192,-0.13744 -0.2737,-0.13744c-0.24,0 -0.264,-0.01018 -0.264,-0.11708c0,-0.09672 -0.0336,-0.11708 -0.2257,-0.15272c-0.1296,-0.02036 -0.3024,-0.03563 -0.3889,-0.03563c-0.1344,0 -0.1536,-0.01527 -0.1536,-0.12726c0,-0.12217 -0.0144,-0.12726 -0.2641,-0.12726c-0.144,0 -0.2736,0.02036 -0.288,0.0509c-0.0144,0.03054 -0.9026,0.05091 -2.5206,0.05091c-1.6179,0 -2.5061,-0.02037 -2.5205,-0.05091c-0.0144,-0.03054 -0.0864,-0.0509 -0.168,-0.0509l-0.1441,0l-0.0096,9.08652zm2.4305,-6.79582c0.0192,0.15271 0.0336,3.21209 0.0336,6.79579c0,3.58369 -0.0096,6.64819 -0.0288,6.81109l-0.0288,0.2901c0.4273,-0.0458 0.8834,-0.0661 1.2867,-0.0814c0.6049,-0.0153 0.7441,-0.0051 0.8017,0.056c0.0529,0.056 0.1297,0.0662 0.3025,0.0458c0.1248,-0.0204 0.2401,-0.0407 0.2641,-0.0509c0.0192,-0.0102 0.0336,-0.0764 0.0336,-0.1476c0,-0.0815 0.0288,-0.1273 0.072,-0.1273c0.0384,0 0.12,0.0255 0.1824,0.056c0.0576,0.0306 0.1537,0.0407 0.2161,0.0255c0.0624,-0.0204 0.1152,-0.0815 0.1296,-0.1578c0.0144,-0.0713 0.0672,-0.1375 0.12,-0.1528c0.0576,-0.0152 0.1105,-0.0865 0.1345,-0.1781c0.0192,-0.1018 0.0624,-0.1527 0.12,-0.1527c0.0672,0 0.0816,-0.0459 0.0816,-0.28c0,-0.2647 0.0048,-0.28 0.12,-0.28c0.1105,0 0.1249,-0.0254 0.1489,-0.2698c0.0144,-0.1425 0.048,-0.2901 0.0768,-0.3156c0.024,-0.0305 0.0384,-0.1578 0.0288,-0.2902c-0.0144,-0.2036 0,-0.2443 0.072,-0.2443c0.0528,0 0.0912,-0.0509 0.1104,-0.168c0.0119,-0.0714 0.027,-0.2016 0.0401,-0.3136c0.0027,-0.0238 0.0054,-0.0468 0.0079,-0.0682c0.0144,-0.1527 -0.0048,-0.2392 -0.0576,-0.3054c-0.0624,-0.0713 -0.072,-0.1476 -0.048,-0.392c0.0081,-0.0946 0.0223,-0.2328 0.0366,-0.3718c0.0111,-0.1079 0.0222,-0.2163 0.0306,-0.3052c0.024,-0.2749 0.0528,-0.3665 0.1056,-0.3665c0.0481,0 0.0817,-0.0764 0.1105,-0.2393c0.0192,-0.1374 0.0336,-1.069 0.0336,-2.07689c0,-1.00792 -0.0192,-1.91911 -0.0384,-2.02601c-0.0192,-0.11709 -0.0624,-0.18835 -0.1057,-0.18835c-0.0528,0 -0.0816,-0.09163 -0.1056,-0.39197c-0.0192,-0.21889 -0.048,-0.46832 -0.0672,-0.54977c-0.024,-0.11199 -0.0048,-0.17817 0.0576,-0.24944c0.0816,-0.08144 0.0816,-0.11199 0.0336,-0.25452c-0.0336,-0.08654 -0.0624,-0.30034 -0.0624,-0.47851c0,-0.31052 0,-0.31561 -0.1296,-0.31561c-0.1248,0.00509 -0.1296,-0.00509 -0.0624,-0.08144c0.0576,-0.06618 0.0624,-0.14763 0.0384,-0.37161c-0.0192,-0.1578 -0.0432,-0.32579 -0.0576,-0.3767c-0.0192,-0.04581 -0.0864,-0.1018 -0.1537,-0.12726c-0.12,-0.03054 -0.1248,-0.0509 -0.096,-0.25452c0.024,-0.16799 0.0096,-0.22907 -0.0528,-0.29525c-0.048,-0.04581 -0.1248,-0.06618 -0.168,-0.05091c-0.072,0.02546 -0.0912,-0.01018 -0.1105,-0.22398c-0.024,-0.22907 -0.0336,-0.25452 -0.144,-0.25452c-0.096,0 -0.12,-0.02545 -0.12,-0.12726c0,-0.11708 -0.0192,-0.12726 -0.2641,-0.15272c-0.2352,-0.02036 -0.264,-0.04072 -0.264,-0.14253l0,-0.11199l-2.6982,0l0.0336,0.27998z" fill="#000000" id="svg_13"/>
  <path d="m0,2.71322c0,-1.14536 0.0144,-2.16346 0.02881,-2.26527l0.0288,-0.19343l1.28668,0l0,0.15271c0,0.12726 0.0192,0.15272 0.24005,0.15272l0,1.20644c0,0.66685 0.0192,1.29808 0.07201,1.59332l3.43274,0l0,-1.08427c0,-0.5905 0.0192,-1.16572 0.07201,-1.46097l1.48832,0l0.03841,0.23925c0.0192,0.13745 0.03361,0.70758 0.03361,2.30599l3.74476,0l0,-0.15271c0,-0.12726 0.0192,-0.15272 0.2401,-0.15272l0,-2.79976l1.3443,0l0,4.53053l-12.0506,0l0,-2.07183z" fill="#000000" id="svg_14"/>
  <path d="m69.3039,0.46831c-0.0144,-0.04581 -0.0144,-0.12726 0,-0.17308c0.0192,-0.06617 0.0625,-0.08144 0.1825,-0.05599c0.0816,0.01527 0.168,0.0509 0.1872,0.07126c0.0144,0.02546 0.4177,0.04582 0.8978,0.04582c0.5329,0 0.8786,-0.02036 0.893,-0.05091c0.0144,-0.03054 0.0768,-0.0509 0.144,-0.0509c0.096,0 0.1249,0.03054 0.1537,0.16799c0.0192,0.08653 0.0336,3.73132 0.0384,16.0299l0.264,-0.0356c0.1441,-0.0204 0.8594,-0.0458 1.5844,-0.056c0.8593,-0.0153 1.3347,-0.0051 1.3683,0.0306c0.024,0.0305 0.1488,0.0509 0.5041,0.0509l0,0.2799c0,0.2342 0.0144,0.28 0.0864,0.28c0.072,0 0.0816,0.0458 0.0672,0.3665c-0.0096,0.2495 0.0096,0.392 0.048,0.4378c0.0528,0.0509 0.0336,0.0662 -0.0816,0.0611c-0.144,0 -0.144,0 -0.1104,0.2138c0.0192,0.1222 0.0192,0.2494 0,0.2851c-0.024,0.0458 -0.6962,0.061 -3.1063,0.061c-2.4101,0 -3.0823,-0.0152 -3.1111,-0.061c-0.0192,-0.0357 -0.024,-0.1069 -0.0096,-0.1578c0.0192,-0.0662 -0.0048,-0.0866 -0.216,-0.0866l0,-17.56216l0.12,0c0.0912,0 0.1152,-0.02036 0.096,-0.09163z" fill="#000000" id="svg_15"/>
  <path d="m56.1986,0.3105c0.0288,-0.02546 0.1008,-0.056 0.168,-0.06618c0.0672,-0.01018 0.1345,0.01018 0.1537,0.04581c0.024,0.03564 0.0288,0.112 0.0144,0.16799c-0.016,0.06787 0,0.10181 0.048,0.10181c0.0624,0 0.072,0.11199 0.072,0.68722c0,0.57522 -0.0096,0.68721 -0.072,0.68721c-0.048,0 -0.0624,0.02885 -0.0432,0.08654c0.0144,0.0509 0,0.12726 -0.0384,0.17308c-0.0529,0.06617 -0.1969,0.07635 -0.9026,0.07126c-0.5618,0 -0.8738,-0.02545 -0.9506,-0.06617c-0.0576,-0.03055 -0.1873,-0.06109 -0.2881,-0.06109c-0.096,0 -0.2064,0.02036 -0.2352,0.04072c-0.0481,0.02546 -0.0625,1.6595 -0.0625,15.6889l-0.12,0c-0.1104,0 -0.12,0.0203 -0.144,0.5701l-1.0322,0c-0.5666,-0.0051 -1.1043,-0.0203 -1.1907,-0.0458c-0.1104,-0.0305 -0.1584,-0.0713 -0.1584,-0.1425c-0.0048,-0.056 0,-0.2393 0.0048,-0.4073c0.0048,-0.168 0.0288,-0.3308 0.0528,-0.3563c0.024,-0.0305 0.0432,-3.0747 0.0384,-7.2794c0,-5.24829 -0.0192,-7.3303 -0.0576,-7.60009c-0.0432,-0.26471 -0.0768,-0.36652 -0.1296,-0.36652c-0.0385,0 -0.1441,-0.03054 -0.2305,-0.06618c-0.1248,-0.04581 -0.168,-0.04581 -0.192,0c-0.024,0.04582 -0.3265,0.06618 -2.1461,0.09163l-0.024,-0.83993c-0.0144,-0.46323 -0.0192,-0.91628 -0.0144,-1.00791c0.0144,-0.15272 0.0288,-0.1629 0.1824,-0.1629c0.0913,0 0.1777,0.02036 0.1921,0.05091c0.0144,0.03563 1.2434,0.0509 3.5431,0.0509c2.0645,0 3.5384,-0.02036 3.5624,-0.04581z" fill="#000000" id="svg_16"/>
  <path d="m27.0054,0.45816c-0.0144,-0.02546 -0.0144,-0.09163 -0.0096,-0.14254c0.0144,-0.07126 0.0576,-0.08654 0.192,-0.07635c0.1008,0.01018 0.1872,0.04072 0.1968,0.06617c0.0096,0.03054 0.3025,0.05091 0.7346,0.05091c0.3937,0 0.7346,-0.02037 0.7634,-0.04582c0.024,-0.02036 0.1152,-0.05599 0.2016,-0.07636c0.1296,-0.02545 0.1584,-0.01527 0.1776,0.07127c0.0144,0.056 0.0144,0.12726 0,0.15272c-0.0144,0.03054 0.0192,0.0509 0.0721,0.0509c0.072,0 0.1056,0.04582 0.1296,0.1629c0.0192,0.09162 0.0384,3.96039 0.048,8.59274c0.0144,6.7042 0.0048,8.4706 -0.0432,8.6436c-0.0432,0.1477 -0.0912,0.2138 -0.144,0.2138c-0.0577,0 -0.0769,0.0306 -0.0625,0.0917c0.0144,0.0458 0.0096,0.1171 -0.0096,0.1527c-0.0288,0.0509 -0.288,0.0662 -1.1186,0.0662c-0.8306,0 -1.0898,-0.0153 -1.1186,-0.0662c-0.0192,-0.0356 -0.024,-0.1069 -0.0096,-0.1527c0.0144,-0.0611 -0.0048,-0.0917 -0.0577,-0.0917c-0.0816,0 -0.0864,-0.453 -0.0864,-8.8065c0,-8.35349 0.0048,-8.80654 0.0864,-8.80654c0.0433,0 0.0721,-0.02036 0.0577,-0.0509z" fill="#000000" id="svg_17"/>
  <path d="m36.8957,0.25961c0.3024,-0.02545 0.336,-0.04072 0.3504,-0.14253c0.0144,-0.11708 0.024,-0.11708 0.8066,-0.11708c0.7202,0 0.7874,0.01018 0.7874,0.09163c0,0.06618 0.0672,0.10181 0.2736,0.15271c0.1537,0.03564 0.3745,0.08145 0.4945,0.09163c0.1249,0.01527 0.2353,0.00509 0.2593,-0.02545c0.0288,-0.03054 0.1104,-0.056 0.1824,-0.056c0.1105,0 0.1345,0.02037 0.1345,0.12727c0,0.11708 0.024,0.13235 0.5041,0.18325l0.0384,0.23926c0.0192,0.13235 0.0336,0.48359 0.0336,0.78902c0,0.38688 -0.0192,0.56505 -0.0624,0.61086c-0.0432,0.04072 -0.2305,0.06109 -0.5906,0.056c-0.288,-0.00509 -0.6385,-0.02037 -0.7729,-0.04073c-0.2113,-0.02545 -0.2545,-0.04581 -0.2545,-0.13235c0,-0.09672 -0.0336,-0.10181 -0.6721,-0.10181c-0.6386,0 -0.6722,0.00509 -0.6722,0.10181c0,0.08145 -0.0384,0.1069 -0.216,0.12726c-0.12,0.01527 -0.2593,0 -0.3121,-0.02545c-0.0672,-0.03563 -0.1536,-0.03054 -0.288,0.01527c-0.1281,0.04072 -0.1921,0.09163 -0.1921,0.15272c0,0.05599 -0.0384,0.08653 -0.1152,0.08653c-0.0672,0 -0.1536,0.04073 -0.1968,0.09163c-0.0481,0.04582 -0.0673,0.12726 -0.0529,0.17817c0.0241,0.06618 0,0.08654 -0.0912,0.08654c-0.096,0 -0.12,0.02545 -0.12,0.12726c0,0.10181 -0.024,0.12726 -0.1296,0.14253c-0.0912,0.00509 -0.1393,0.04073 -0.1489,0.11199c-0.0048,0.06618 -0.0624,0.11709 -0.1536,0.14254c-0.0864,0.02036 -0.1536,0.07635 -0.168,0.13744c-0.0144,0.056 0,0.14762 0.024,0.20362c0.024,0.056 0.048,0.13744 0.048,0.17817c0,0.0509 -0.048,0.07635 -0.144,0.07635c-0.1249,0 -0.1489,0.02037 -0.1729,0.16799c-0.0144,0.08654 -0.0288,0.22398 -0.0336,0.30543c-0.0048,0.08145 -0.0384,0.13744 -0.0816,0.13744c-0.0432,0 -0.096,0.08654 -0.1296,0.20362c-0.0432,0.13235 -0.048,0.23416 -0.0192,0.29525c0.024,0.04581 0.0288,0.26471 0.0144,0.4836c-0.0288,0.34615 -0.0432,0.39196 -0.1297,0.39196c-0.0816,0 -0.1056,0.05091 -0.1488,0.36652c-0.0336,0.2138 -0.0384,0.39197 -0.0096,0.42251c0.0192,0.03054 0.0384,0.19853 0.0384,0.38179c0,0.19852 -0.024,0.35633 -0.0576,0.39196c-0.0528,0.056 -0.0528,0.07636 0,0.13236c0.0432,0.04581 0.0576,0.48359 0.0576,1.90893c0,1.42027 -0.0144,1.84787 -0.0576,1.87327c-0.048,0.0255 -0.048,0.0408 0,0.0917c0.0336,0.0356 0.0576,0.1832 0.0576,0.3868c0,0.1833 -0.024,0.3513 -0.0528,0.3818c-0.0384,0.0357 -0.0384,0.0815 0,0.168c0.0288,0.0611 0.0528,0.1985 0.0528,0.3054c0,0.1018 0.0192,0.2749 0.0384,0.3818c0.024,0.1324 0.0576,0.1884 0.12,0.1884c0.0721,0 0.0817,0.0509 0.0769,0.4225c0,0.2291 0.0096,0.4938 0.024,0.5854c0.0192,0.112 0.0576,0.1629 0.1152,0.1629c0.0624,0 0.0864,0.0458 0.0912,0.1934c0.0048,0.1018 0.0384,0.2851 0.072,0.4073c0.048,0.1679 0.0864,0.2138 0.1729,0.2138c0.0864,0 0.1056,0.0305 0.1056,0.1527c0,0.1171 0.0192,0.1527 0.096,0.1527c0.064,0 0.088,0.0254 0.072,0.0763c-0.0144,0.0408 0.0096,0.1324 0.048,0.2037c0.0384,0.0712 0.072,0.1629 0.072,0.2036c0,0.056 0.0577,0.0763 0.2401,0.0763c0.2064,0 0.2353,0.0102 0.2112,0.0917c-0.0144,0.0458 0,0.1221 0.0385,0.1629c0.0336,0.0458 0.1536,0.0967 0.2688,0.117c0.1104,0.0204 0.2257,0.0255 0.2497,0.0102c0.024,-0.0152 0.048,0.0204 0.048,0.0764c0,0.0967 0.0336,0.1018 0.5281,0.1018c0.4369,0 0.5281,-0.0153 0.5281,-0.0764c0,-0.0407 0.0384,-0.0763 0.0864,-0.0763c0.0432,0 0.1248,-0.0306 0.1777,-0.0764c0.0528,-0.0407 0.1344,-0.0763 0.1824,-0.0763c0.0528,0 0.0816,-0.0408 0.0816,-0.1273c0,-0.1069 0.024,-0.1273 0.144,-0.1273c0.1249,0 0.1489,-0.0203 0.1729,-0.1629c0.0144,-0.0916 0.0288,-0.2188 0.0336,-0.2799c0.0048,-0.0764 0.0432,-0.1171 0.096,-0.1171c0.0672,0 0.0768,-0.0356 0.0624,-0.2138c-0.0096,-0.1222 0.0096,-0.3054 0.0384,-0.4073c0.0352,-0.1255 0.0848,-0.1934 0.1489,-0.2036c0.0768,-0.0102 0.1056,-0.0814 0.1536,-0.3716c0.0288,-0.1985 0.0576,-0.4428 0.0576,-0.5447c0.0048,-0.1069 -0.0192,-0.2036 -0.0432,-0.2188c-0.0288,-0.0153 -0.048,-0.448 -0.048,-1.1454c0,-0.8043 0.0192,-1.1505 0.0624,-1.2268c0.048,-0.0866 0.0432,-0.112 -0.0384,-0.1782c-0.0768,-0.056 -0.2641,-0.0712 -0.8498,-0.0712c-0.7249,0 -0.7586,-0.0051 -0.7586,-0.1019c0,-0.0712 -0.024,-0.0967 -0.0816,-0.0763c-0.048,0.0153 -0.12,0.0153 -0.1584,0c-0.0576,-0.0204 -0.0672,-0.0967 -0.0528,-0.3411c0.0096,-0.1781 0.0336,-0.341 0.0576,-0.3716c0.024,-0.0305 0.0432,-0.11707 0.0432,-0.2036c0,-0.08654 -0.0192,-0.17308 -0.0432,-0.20362c-0.024,-0.03055 -0.048,-0.19344 -0.0576,-0.37161c-0.0144,-0.2647 -0.0048,-0.3207 0.0672,-0.34106c0.0432,-0.01527 0.1056,-0.01527 0.1296,0c0.024,0.01527 0.048,-0.03054 0.048,-0.22907l3.7448,0l0.024,0.27997c0.024,0.25962 0.0337,0.27998 0.2641,0.27998l0,8.80651l-0.12,0c-0.0912,0 -0.1152,0.0204 -0.096,0.0917c0.0144,0.0458 -0.0096,0.1272 -0.0577,0.173c-0.0768,0.0764 -0.1248,0.0815 -0.3744,0.0408c-0.1585,-0.0306 -0.2977,-0.0509 -0.3121,-0.0509c-0.0144,0 -0.0288,-0.0917 -0.0336,-0.2037c-0.0096,-0.112 -0.0384,-0.2494 -0.0624,-0.3054c-0.024,-0.056 -0.048,-0.1476 -0.048,-0.2036c0,-0.0679 -0.032,-0.1018 -0.0961,-0.1018c-0.0816,0 -0.1008,-0.0458 -0.1248,-0.2647c-0.0192,-0.1477 -0.0144,-0.3513 0,-0.448c0.0192,-0.0967 0.0336,-0.224 0.0336,-0.28c0,-0.056 -0.0096,-0.1781 -0.024,-0.2647c-0.024,-0.1476 -0.048,-0.168 -0.1728,-0.168c-0.12,0 -0.144,-0.0203 -0.144,-0.1272c0,-0.1018 -0.0241,-0.1273 -0.1201,-0.1273c-0.12,0 -0.12,0.0051 -0.12,0.8145l-0.1296,0c-0.1345,0 -0.1345,0 -0.096,0.2545c0.0288,0.2087 0.0192,0.2698 -0.0481,0.336c-0.048,0.0458 -0.1248,0.0662 -0.168,0.0509c-0.072,-0.0255 -0.0912,0.0102 -0.1104,0.224c-0.0192,0.224 -0.0384,0.2545 -0.1296,0.2545c-0.0625,-0.0051 -0.1393,0.0305 -0.1681,0.0764c-0.0336,0.0407 -0.0528,0.112 -0.0384,0.1527c0.0192,0.0611 -0.024,0.0763 -0.216,0.0763c-0.2353,0 -0.2401,0.0051 -0.2401,0.1527c0,0.1426 -0.0096,0.1528 -0.1536,0.1222c-0.0864,-0.0153 -0.2017,-0.0254 -0.2545,-0.0254c-0.0528,0 -0.168,0.0101 -0.2496,0.0254c-0.096,0.0204 -0.1585,0.0611 -0.1585,0.1069c0,0.0662 -0.1056,0.0764 -0.6481,0.0764c-0.5425,0 -0.6481,-0.0102 -0.6481,-0.0764c0,-0.056 -0.0721,-0.0814 -0.2737,-0.1018c-0.1536,-0.0153 -0.3313,-0.0254 -0.3985,-0.0305c-0.0672,0 -0.1824,0.0051 -0.264,0.0152c-0.1249,0.0153 -0.1441,0 -0.1537,-0.1221c-0.0144,-0.1375 -0.024,-0.1426 -0.2784,-0.1273c-0.2161,0.0102 -0.2689,-0.0051 -0.2881,-0.0764c-0.0144,-0.0509 -0.0144,-0.1069 -0.0048,-0.1272c0.0144,-0.0255 -0.0768,-0.056 -0.2016,-0.0815c-0.1921,-0.0305 -0.2257,-0.056 -0.2257,-0.1527c0,-0.0916 -0.0288,-0.112 -0.1776,-0.1222c-0.1681,-0.0152 -0.1825,-0.0254 -0.1825,-0.1679c0,-0.1171 -0.0192,-0.1528 -0.096,-0.1528c-0.072,0 -0.0912,-0.0254 -0.072,-0.1018c0.0144,-0.061 -0.0048,-0.112 -0.048,-0.1272c-0.0384,-0.0153 -0.072,-0.0815 -0.072,-0.1527c0,-0.0968 -0.0288,-0.1324 -0.1056,-0.1375c-0.0817,-0.0102 -0.1153,-0.0509 -0.1201,-0.1527c-0.0144,-0.112 -0.0384,-0.1425 -0.1344,-0.1425c-0.1104,0 -0.12,-0.0204 -0.1296,-0.2902c-0.0144,-0.28 -0.0192,-0.2952 -0.1441,-0.3054c-0.12,-0.0153 -0.1296,-0.0306 -0.1056,-0.1527c0.0144,-0.0815 0.0288,-0.1884 0.024,-0.2444c0,-0.056 -0.0096,-0.1781 -0.024,-0.2647c-0.024,-0.1374 -0.0528,-0.168 -0.1488,-0.168c-0.1152,0 -0.12,-0.0152 -0.1152,-0.2647c0,-0.1476 -0.0096,-0.3461 -0.024,-0.4327c-0.024,-0.1374 -0.0529,-0.1679 -0.1489,-0.1679c-0.1104,0 -0.12,-0.0153 -0.12,-0.2648c0,-0.1476 0.0192,-0.2901 0.048,-0.3207c0.0384,-0.0356 0.0384,-0.1425 0,-0.3563c-0.024,-0.168 -0.048,-0.4734 -0.048,-0.6719c0,-0.3615 -0.0048,-0.3716 -0.12,-0.3716c-0.1153,0 -0.1201,-0.0102 -0.1489,-0.4429c-0.0144,-0.2494 -0.024,-0.7687 -0.024,-1.1606c0.0048,-0.4175 0.024,-0.7178 0.0528,-0.72289c0.0289,-0.01018 0.0481,-0.2698 0.0481,-0.62613c0,-0.48869 -0.0144,-0.63122 -0.0769,-0.6974c-0.0624,-0.07635 -0.072,-0.18325 -0.0528,-0.62613c0.0144,-0.29524 0.0384,-0.66685 0.0528,-0.82465c0.024,-0.24944 0.0433,-0.29525 0.1249,-0.29525c0.0816,0 0.1008,-0.04073 0.12,-0.29016c0.0144,-0.1629 0.0528,-0.50905 0.0864,-0.76866c0.048,-0.3767 0.0432,-0.48869 0,-0.57014c-0.0336,-0.05599 -0.0624,-0.1578 -0.0624,-0.22907c0,-0.10181 0.024,-0.12726 0.12,-0.12726c0.096,0 0.1249,-0.03055 0.1489,-0.16799c0.0144,-0.08654 0.024,-0.28507 0.024,-0.4276c-0.0048,-0.25452 0,-0.2698 0.1152,-0.2698c0.096,0 0.1248,-0.03054 0.1488,-0.16289c0.0144,-0.09163 0.024,-0.2138 0.024,-0.2698c0.0048,-0.05599 -0.0096,-0.16289 -0.024,-0.23925c-0.024,-0.12217 -0.0144,-0.14253 0.0816,-0.14253c0.0913,0 0.1105,-0.03564 0.1441,-0.25453c0.0288,-0.20362 0.0528,-0.25452 0.1248,-0.25452c0.0528,0 0.1296,-0.03564 0.168,-0.07636c0.0624,-0.06109 0.0672,-0.12726 0.0432,-0.30543c-0.0384,-0.21889 -0.0336,-0.22907 0.0721,-0.22907c0.0576,0 0.168,-0.06109 0.2448,-0.13744c0.0816,-0.08145 0.1488,-0.20871 0.1584,-0.29525c0.0144,-0.13235 0.0384,-0.15781 0.1825,-0.17817c0.1296,-0.02036 0.168,-0.0509 0.168,-0.12726c0,-0.06109 0.0384,-0.11199 0.096,-0.12726c0.0624,-0.02036 0.1009,-0.08145 0.1105,-0.16799c0.0048,-0.08145 0.0384,-0.13744 0.0816,-0.13744c0.0384,0 0.1152,0.02545 0.168,0.0509c0.0528,0.02546 0.1392,0.04073 0.1921,0.02546c0.0576,-0.01528 0.1056,-0.08145 0.1248,-0.16799c0.0192,-0.11199 0.0576,-0.14254 0.2016,-0.17308c0.096,-0.02036 0.2593,-0.04072 0.3601,-0.04072c0.1584,0 0.1776,-0.01527 0.1776,-0.12726c0,-0.1069 0.024,-0.12727 0.1441,-0.12727c0.0816,0 0.1584,0.02546 0.1824,0.056c0.0192,0.03563 0.0912,0.04581 0.2017,0.02036c0.0912,-0.02545 0.3216,-0.05599 0.5041,-0.07127z" fill="#000000" id="svg_18"/>
 </g>

</svg>